<?xml version="1.0" encoding="utf-8"?>
<!-- Generator: Adobe Illustrator 24.2.0, SVG Export Plug-In . SVG Version: 6.00 Build 0)  -->
<svg version="1.1" id="Layer_1" xmlns="http://www.w3.org/2000/svg" xmlns:xlink="http://www.w3.org/1999/xlink" x="0px" y="0px"
	 viewBox="0 0 1500 1500" style="enable-background:new 0 0 1500 1500;" xml:space="preserve">
<style type="text/css">
	.st0{fill:#12753E;}
</style>
<g>
	<g>
		<path d="M983,647.9c4,0,7.4,0.5,10.3,1.4c2.8,1,5.1,1.9,6.7,3c1.6,1,2.5,1.7,2.8,2l-3.4,5.2c-0.5-0.5-1.5-1.2-2.9-2.1
			c-1.4-0.9-3.1-1.7-5.3-2.5c-2.2-0.7-4.7-1.1-7.7-1.1c-4.7,0-8.4,1-11.1,3c-2.7,2-4.1,4.7-4.1,8.2c0,2.4,0.7,4.4,2.1,6.2
			c1.4,1.8,3.4,3.4,5.8,4.8c2.5,1.4,5.3,2.9,8.4,4.3c2.4,1.1,4.9,2.3,7.4,3.7c2.5,1.4,4.7,2.9,6.8,4.8s3.7,3.9,5,6.4
			c1.3,2.4,1.9,5.2,1.9,8.4c0,2.9-0.6,5.5-1.8,7.9c-1.2,2.4-2.8,4.4-5,6.2c-2.1,1.7-4.7,3.1-7.6,4c-2.9,0.9-6.1,1.4-9.6,1.4
			c-4.2,0-7.9-0.5-11.3-1.6c-3.4-1.1-6.1-2.2-8.2-3.3c-2.1-1.2-3.2-1.8-3.5-2.1l3.7-5.4c0.4,0.4,1.2,0.9,2.3,1.6
			c1.1,0.7,2.5,1.5,4.2,2.2c1.7,0.8,3.6,1.4,5.8,1.9c2.2,0.5,4.6,0.8,7.2,0.8c5.6,0,9.9-1.3,12.8-3.9c2.9-2.6,4.4-5.9,4.4-9.9
			c0-3.1-0.9-5.8-2.8-8c-1.9-2.2-4.3-4.2-7.2-5.8c-2.9-1.7-6-3.3-9.2-4.8c-3.4-1.6-6.4-3.3-9.2-5c-2.7-1.8-4.9-3.9-6.6-6.3
			c-1.6-2.4-2.5-5.2-2.5-8.6c0-3.3,0.9-6.1,2.8-8.7c1.9-2.5,4.4-4.5,7.6-5.9C975.4,648.6,979,647.9,983,647.9z"/>
		<path d="M1014.2,676.6h9.4v-18.5h6.2v18.5h12.3v5.6h-12.3v26.7c0,3,0.5,5.1,1.6,6.4s2.5,1.9,4.1,1.9c1.6,0,2.8-0.3,3.6-0.8
			c0.8-0.5,1.3-0.9,1.4-1.1l2.9,4.8c-0.2,0.2-0.7,0.5-1.5,1c-0.8,0.5-1.8,0.9-3,1.3c-1.2,0.4-2.7,0.6-4.5,0.6c-3,0-5.6-1-7.7-2.9
			c-2.1-2-3.2-5.1-3.2-9.4v-28.3h-9.4V676.6z"/>
		<path d="M1058.6,700.1c0,5.3,1.2,9.4,3.5,12.5c2.3,3.1,5.8,4.6,10.5,4.6c4.7,0,8.2-1.5,10.5-4.6s3.5-7.3,3.5-12.5v-23.5h6.3v24.6
			c0,4.2-0.8,7.9-2.4,11.2c-1.6,3.3-3.9,5.8-6.9,7.7c-3,1.9-6.7,2.8-11,2.8c-4.3,0-8-0.9-11-2.8c-3-1.9-5.3-4.4-6.9-7.7
			c-1.6-3.3-2.4-7-2.4-11.2v-24.6h6.2V700.1z"/>
		<path d="M1127.2,722.9c-4.1,0-7.7-0.9-11-2.8c-3.3-1.9-5.9-4.6-7.8-8.2c-1.9-3.6-2.9-7.8-2.9-12.8c0-5,1-9.2,2.9-12.8
			c1.9-3.6,4.5-6.3,7.8-8.2c3.3-1.9,7-2.9,11-2.9c3.5,0,6.5,0.6,9.2,1.9c2.7,1.3,4.8,2.8,6.4,4.4c1.6,1.7,2.4,3.1,2.6,4.3v-39.7h6.4
			v75.4h-6.2v-9.4c-0.3,1.2-1.2,2.6-2.8,4.3c-1.6,1.7-3.7,3.2-6.4,4.5C1133.7,722.2,1130.6,722.9,1127.2,722.9z M1127.9,717.4
			c3.2,0,6.1-0.7,8.7-2.2c2.6-1.5,4.7-3.6,6.3-6.4c1.6-2.7,2.4-6,2.4-9.7c0-3.7-0.8-7-2.4-9.7c-1.6-2.7-3.7-4.9-6.3-6.4
			c-2.6-1.5-5.5-2.3-8.7-2.3c-2.8,0-5.5,0.7-8,2.2c-2.5,1.5-4.5,3.6-6,6.3c-1.5,2.7-2.3,6-2.3,9.8c0,3.8,0.8,7.1,2.3,9.8
			c1.5,2.7,3.5,4.8,6,6.3C1122.4,716.7,1125.1,717.4,1127.9,717.4z"/>
		<path d="M1179.6,715.6l16.6-39h6.5l-30.2,67.8h-6.5l10.2-22.8l-18.5-45h6.5L1179.6,715.6z"/>
		<path d="M983.4,755.8h6.7l25.9,72.4h-6.5l-6.7-18.7h-32l-6.8,18.7h-6.6L983.4,755.8z M972.6,803.6h28.3l-14.1-40.1h-0.2
			L972.6,803.6z"/>
		<path d="M1024.2,828.1v-75.4h6.4v39.7c0.2-1.2,1-2.6,2.6-4.3c1.5-1.7,3.6-3.1,6.3-4.4c2.7-1.3,5.8-1.9,9.3-1.9c4.1,0,7.8,1,11,2.9
			c3.3,1.9,5.9,4.6,7.8,8.2c1.9,3.6,2.9,7.8,2.9,12.8c0,5-1,9.2-2.9,12.8c-1.9,3.6-4.5,6.3-7.8,8.2c-3.3,1.9-7,2.8-11,2.8
			c-3.4,0-6.5-0.7-9.2-2s-4.8-2.8-6.4-4.5c-1.6-1.7-2.5-3.1-2.7-4.3v9.4H1024.2z M1064.1,805.7c0-3.8-0.8-7.1-2.3-9.8
			c-1.5-2.7-3.5-4.9-6-6.3c-2.5-1.5-5.1-2.2-8-2.2c-3.1,0-6,0.8-8.7,2.3c-2.6,1.5-4.7,3.6-6.3,6.4c-1.6,2.7-2.4,6-2.4,9.7
			s0.8,7,2.4,9.7c1.6,2.7,3.7,4.9,6.3,6.4c2.6,1.5,5.5,2.2,8.7,2.2c2.9,0,5.6-0.7,8-2.2c2.5-1.5,4.5-3.6,6-6.3
			C1063.4,812.7,1064.1,809.5,1064.1,805.7z"/>
		<path d="M1086.7,828.1h-6.1v-45h6.1v8.1h-0.3c0.1-0.9,0.8-2.2,2-3.6c1.2-1.5,2.8-2.8,4.9-4c2-1.2,4.5-1.8,7.2-1.8
			c2.1,0,3.9,0.3,5.5,0.8c1.5,0.5,2.6,1.1,3.2,1.6l-2.7,5.3c-0.5-0.5-1.4-0.9-2.7-1.4c-1.3-0.5-2.9-0.7-4.7-0.7
			c-2.5,0-4.7,0.8-6.5,2.5c-1.8,1.7-3.3,3.7-4.3,6s-1.5,4.4-1.5,6.4V828.1z"/>
		<path d="M1135,829.5c-4.5,0-8.5-1.1-12-3.2c-3.5-2.1-6.2-4.9-8.2-8.5c-2-3.6-3-7.6-3-12c0-4.4,1-8.5,3-12.1c2-3.6,4.7-6.5,8.2-8.7
			c3.5-2.1,7.5-3.2,12-3.2c4.5,0,8.5,1.1,11.9,3.2c3.5,2.1,6.2,5,8.1,8.7c2,3.6,3,7.7,3,12.1c0,4.4-1,8.4-3,12
			c-2,3.6-4.7,6.4-8.1,8.5C1143.4,828.4,1139.5,829.5,1135,829.5z M1135,823.8c3.4,0,6.4-0.8,8.9-2.4c2.5-1.6,4.5-3.7,5.9-6.5
			c1.4-2.7,2.1-5.8,2.1-9.2c0-3.4-0.7-6.5-2.1-9.3c-1.4-2.8-3.4-5-5.9-6.6c-2.5-1.6-5.5-2.4-8.9-2.4c-3.4,0-6.4,0.8-9,2.4
			c-2.6,1.6-4.6,3.8-6,6.6c-1.4,2.8-2.1,5.9-2.1,9.3c0,3.4,0.7,6.5,2.1,9.2c1.4,2.7,3.4,4.9,6,6.5
			C1128.5,823,1131.5,823.8,1135,823.8z"/>
		<path d="M1206.1,828.1v-9.4c-0.3,1-1.1,2.3-2.5,4.1c-1.4,1.7-3.4,3.3-6,4.6c-2.5,1.4-5.5,2.1-9,2.1c-4.1,0-7.8-0.9-11.2-2.8
			c-3.4-1.9-6.2-4.6-8.2-8.2c-2.1-3.6-3.1-7.8-3.1-12.8c0-5,1-9.2,3.1-12.8s4.8-6.3,8.2-8.2c3.4-1.9,7.2-2.9,11.2-2.9
			c3.5,0,6.5,0.6,9,1.9c2.5,1.3,4.5,2.8,6,4.5c1.5,1.7,2.3,3.1,2.5,4.2v-9.3h6.1v45H1206.1z M1172.2,805.7c0,3.8,0.8,7.1,2.5,9.8
			c1.6,2.7,3.8,4.8,6.4,6.3c2.6,1.5,5.4,2.2,8.3,2.2c3.2,0,6-0.7,8.5-2.2c2.5-1.5,4.4-3.6,5.9-6.4c1.4-2.7,2.2-6,2.2-9.7
			s-0.7-7-2.2-9.7c-1.4-2.7-3.4-4.9-5.9-6.4c-2.5-1.5-5.3-2.3-8.5-2.3c-2.9,0-5.6,0.7-8.3,2.2c-2.6,1.5-4.7,3.6-6.4,6.3
			C1173,798.6,1172.2,801.9,1172.2,805.7z"/>
		<path d="M1246.1,829.5c-4.1,0-7.7-0.9-11-2.8c-3.3-1.9-5.9-4.6-7.8-8.2c-1.9-3.6-2.9-7.8-2.9-12.8c0-5,1-9.2,2.9-12.8
			c1.9-3.6,4.6-6.3,7.8-8.2c3.3-1.9,7-2.9,11-2.9c3.5,0,6.5,0.6,9.2,1.9c2.7,1.3,4.8,2.8,6.4,4.4c1.6,1.7,2.4,3.1,2.6,4.3v-39.7h6.4
			v75.4h-6.2v-9.4c-0.3,1.2-1.2,2.6-2.8,4.3c-1.6,1.7-3.7,3.2-6.4,4.5C1252.6,828.8,1249.5,829.5,1246.1,829.5z M1246.8,824
			c3.2,0,6.1-0.7,8.7-2.2c2.6-1.5,4.7-3.6,6.3-6.4c1.6-2.7,2.4-6,2.4-9.7s-0.8-7-2.4-9.7c-1.6-2.7-3.7-4.9-6.3-6.4
			c-2.6-1.5-5.5-2.3-8.7-2.3c-2.9,0-5.5,0.7-8,2.2c-2.5,1.5-4.5,3.6-6,6.3c-1.5,2.7-2.3,6-2.3,9.8c0,3.8,0.8,7.1,2.3,9.8
			c1.5,2.7,3.5,4.8,6,6.3C1241.3,823.2,1244,824,1246.8,824z"/>
	</g>
	<g>
		<path class="st0" d="M437.7,606.1h-16.9v-11.3h46.6v11.3h-16.9v56.2h-12.8V606.1z"/>
		<path class="st0" d="M484.9,662.3h-13v-42h13v6.8h-0.3c0.2-0.8,0.9-1.9,2-3.1c1.1-1.3,2.6-2.4,4.5-3.4c1.9-1,4.2-1.5,6.9-1.5
			c1.9,0,3.7,0.3,5.3,0.8c1.6,0.6,2.7,1.1,3.4,1.7l-5.1,10.6c-0.4-0.5-1.3-1.1-2.5-1.7c-1.2-0.6-2.7-0.9-4.5-0.9
			c-2.1,0-3.9,0.6-5.4,1.8c-1.4,1.2-2.5,2.6-3.2,4.3c-0.7,1.7-1.1,3.3-1.1,4.7V662.3z"/>
		<path class="st0" d="M523.8,640.4c0,3.8,0.7,6.7,2.3,9c1.5,2.2,3.9,3.4,7.3,3.4c3.4,0,5.8-1.1,7.3-3.4c1.5-2.2,2.3-5.2,2.3-9
			v-20.1h12.8v21.6c0,4.3-0.9,8.1-2.6,11.4c-1.7,3.3-4.3,5.8-7.6,7.6c-3.3,1.8-7.4,2.7-12.2,2.7c-4.7,0-8.8-0.9-12.1-2.7
			c-3.3-1.8-5.9-4.3-7.6-7.6c-1.7-3.3-2.6-7.1-2.6-11.4v-21.6h12.8V640.4z"/>
		<path class="st0" d="M583.5,619.1c2.5,0,4.9,0.2,7,0.7c2.1,0.5,4,1,5.4,1.6c1.5,0.6,2.5,1.1,2.9,1.5l-4.5,7.8
			c-0.7-0.5-1.9-1.2-3.7-1.9c-1.8-0.8-3.7-1.1-5.9-1.1c-1.9,0-3.6,0.3-4.9,1c-1.3,0.7-2,1.7-2,3c0,1.3,0.7,2.4,2.1,3.2
			c1.4,0.8,3.4,1.5,6,2c2.1,0.4,4.3,1.1,6.3,2c2.1,0.9,3.8,2.2,5.2,3.9c1.4,1.7,2,3.9,2,6.7c0,2.8-0.6,5.1-1.8,6.9
			c-1.2,1.8-2.7,3.3-4.7,4.3c-1.9,1.1-4.1,1.8-6.4,2.3c-2.3,0.4-4.6,0.7-6.9,0.7c-3,0-5.6-0.3-7.8-0.8c-2.3-0.6-4.1-1.2-5.6-1.9
			c-1.5-0.7-2.5-1.4-3.1-1.9l4.5-8.7c0.9,0.8,2.3,1.6,4.4,2.6c2,0.9,4.2,1.4,6.6,1.4c2.5,0,4.4-0.4,5.8-1.3c1.4-0.9,2.1-2,2.1-3.4
			c0-1.1-0.3-1.9-1-2.6c-0.7-0.7-1.6-1.2-2.8-1.7c-1.2-0.4-2.6-0.8-4.2-1.2c-1.5-0.3-3-0.8-4.5-1.4c-1.5-0.6-3-1.4-4.3-2.4
			c-1.3-1-2.4-2.2-3.2-3.7c-0.8-1.5-1.2-3.3-1.2-5.3c0-2.7,0.9-4.9,2.6-6.7c1.7-1.8,3.9-3.2,6.7-4.1
			C577.5,619.6,580.4,619.1,583.5,619.1z"/>
		<path class="st0" d="M604.5,620.3h7.6v-17.2H625v17.2h9.9v10.8H625v15.2c0,2,0.3,3.6,1,4.7c0.6,1.1,1.7,1.7,3.1,1.7
			c1.1,0,1.9-0.2,2.6-0.6c0.7-0.4,1.1-0.7,1.2-0.9l4.6,9.3c-0.2,0.2-0.9,0.6-2,1.1c-1.1,0.5-2.5,1-4.2,1.4c-1.7,0.4-3.7,0.6-5.8,0.6
			c-3.9,0-7-1.1-9.6-3.4c-2.5-2.2-3.8-5.7-3.8-10.4v-18.7h-7.6V620.3z"/>
		<path class="st0" d="M424.6,695.5h41.9v11.3h-29.2v16.9h28.8v10.9h-28.8v17.1h29.2v11.3h-41.9V695.5z"/>
		<path class="st0" d="M497.1,764.3c-4,0-7.5-1-10.5-2.9c-3-1.9-5.4-4.6-7.1-7.9c-1.7-3.4-2.5-7.2-2.5-11.4c0-4.2,0.8-8,2.5-11.4
			c1.7-3.4,4-6,7.1-8c3-1.9,6.5-2.9,10.5-2.9c2.8,0,5.3,0.5,7.5,1.4c2.2,0.9,4,2,5.3,3.3c1.3,1.3,2.1,2.4,2.4,3.4v-35.2h13v70.4
			h-12.9v-7.3c-0.5,1.2-1.6,2.5-3,3.8c-1.5,1.3-3.3,2.5-5.4,3.4C501.9,763.8,499.6,764.3,497.1,764.3z M500.7,754
			c2.2,0,4.1-0.5,5.9-1.5c1.7-1,3.1-2.4,4.1-4.2c1-1.8,1.5-3.8,1.5-6.2c0-2.3-0.5-4.4-1.5-6.2c-1-1.8-2.4-3.2-4.1-4.2
			c-1.7-1-3.7-1.5-5.9-1.5c-2,0-3.9,0.5-5.5,1.5c-1.7,1-3,2.4-4,4.2c-1,1.8-1.5,3.9-1.5,6.2s0.5,4.4,1.5,6.2c1,1.8,2.3,3.2,4,4.2
			C496.9,753.5,498.7,754,500.7,754z"/>
		<path class="st0" d="M546.9,741.2c0,3.8,0.7,6.7,2.3,9c1.5,2.2,3.9,3.4,7.3,3.4c3.4,0,5.8-1.1,7.3-3.4c1.5-2.2,2.3-5.2,2.3-9
			v-20.1h12.8v21.6c0,4.3-0.9,8.1-2.6,11.4c-1.7,3.3-4.3,5.8-7.6,7.6c-3.3,1.8-7.4,2.7-12.2,2.7c-4.7,0-8.8-0.9-12.1-2.7
			c-3.3-1.8-5.9-4.3-7.6-7.6c-1.7-3.3-2.6-7.1-2.6-11.4v-21.6h12.8V741.2z"/>
		<path class="st0" d="M610.9,754c2.2,0,4-0.4,5.4-1.1c1.4-0.7,2.3-1.3,2.8-1.7l6,9c-0.5,0.4-1.4,0.9-2.7,1.6
			c-1.3,0.7-2.9,1.3-4.9,1.8c-2,0.5-4.3,0.8-6.8,0.8c-4.4,0-8.4-0.9-11.9-2.7c-3.5-1.8-6.3-4.3-8.3-7.7c-2-3.3-3-7.3-3-11.9
			c0-4.6,1-8.6,3-11.9c2-3.3,4.8-5.9,8.3-7.6c3.5-1.8,7.5-2.7,11.9-2.7c2.5,0,4.8,0.3,6.7,0.8c2,0.5,3.6,1.2,4.9,1.9
			c1.3,0.7,2.3,1.3,2.8,1.7l-6.2,9c-0.2-0.3-0.7-0.6-1.4-1.1c-0.7-0.5-1.6-0.9-2.7-1.3c-1.1-0.4-2.4-0.6-4-0.6
			c-1.9,0-3.7,0.5-5.3,1.5c-1.7,1-3.1,2.4-4.1,4.1c-1.1,1.8-1.6,3.9-1.6,6.2c0,2.4,0.5,4.5,1.6,6.3c1.1,1.8,2.4,3.2,4.1,4.2
			C607.2,753.5,609,754,610.9,754z"/>
		<path class="st0" d="M665.4,763.1v-7.3c-0.3,0.8-1.1,1.8-2.4,3.2c-1.3,1.4-3,2.6-5.1,3.7c-2.1,1.1-4.6,1.7-7.5,1.7
			c-4,0-7.6-1-10.7-2.9c-3.1-1.9-5.5-4.6-7.3-7.9c-1.8-3.4-2.6-7.2-2.6-11.4c0-4.2,0.9-8,2.6-11.4c1.8-3.4,4.2-6,7.3-8
			c3.1-1.9,6.7-2.9,10.7-2.9c2.8,0,5.2,0.5,7.3,1.4c2.1,0.9,3.7,2,5,3.3c1.3,1.2,2.1,2.4,2.5,3.4v-6.8h12.9v42H665.4z M642.6,742.1
			c0,2.4,0.5,4.4,1.6,6.2c1.1,1.8,2.5,3.2,4.2,4.2c1.7,1,3.6,1.5,5.7,1.5c2.1,0,4.1-0.5,5.7-1.5c1.7-1,3-2.4,4-4.2
			c1-1.8,1.5-3.8,1.5-6.2c0-2.3-0.5-4.4-1.5-6.2c-1-1.8-2.3-3.2-4-4.2c-1.7-1-3.6-1.5-5.7-1.5c-2,0-3.9,0.5-5.7,1.5
			c-1.7,1-3.1,2.4-4.2,4.2C643.2,737.7,642.6,739.7,642.6,742.1z"/>
		<path class="st0" d="M685.3,721.1h7.6v-17.2h12.9v17.2h9.9v10.8h-9.9V747c0,2,0.3,3.6,1,4.7c0.6,1.1,1.7,1.7,3.1,1.7
			c1.1,0,1.9-0.2,2.6-0.6c0.7-0.4,1.1-0.7,1.2-0.9l4.6,9.3c-0.2,0.2-0.9,0.6-2,1.1c-1.1,0.5-2.5,1-4.2,1.4c-1.7,0.4-3.7,0.6-5.8,0.6
			c-3.9,0-7-1.1-9.6-3.4c-2.5-2.2-3.8-5.7-3.8-10.4v-18.7h-7.6V721.1z"/>
		<path class="st0" d="M732.2,710.2c-2.1,0-4-0.8-5.4-2.3c-1.5-1.5-2.2-3.3-2.2-5.4c0-2.1,0.7-3.9,2.3-5.4c1.5-1.5,3.3-2.3,5.4-2.3
			c1.4,0,2.7,0.4,3.8,1c1.2,0.7,2.1,1.6,2.8,2.8c0.7,1.2,1.1,2.5,1.1,3.9c0,2.1-0.8,3.9-2.3,5.4
			C736.1,709.5,734.3,710.2,732.2,710.2z M725.5,763.1v-42h12.9v42H725.5z"/>
		<path class="st0" d="M770.9,764.3c-4.5,0-8.5-1-11.9-2.9c-3.5-1.9-6.2-4.5-8.2-7.9c-2-3.3-3-7.1-3-11.4c0-4.3,1-8.1,3-11.4
			c2-3.4,4.7-6,8.2-8c3.5-2,7.5-2.9,11.9-2.9c4.5,0,8.5,1,11.9,2.9c3.4,2,6.1,4.6,8.1,8c1.9,3.4,2.9,7.2,2.9,11.4
			c0,4.3-1,8.1-2.9,11.4c-1.9,3.3-4.6,5.9-8.1,7.9C779.4,763.3,775.4,764.3,770.9,764.3z M770.9,753.5c2.1,0,4-0.5,5.6-1.5
			c1.6-1,2.8-2.3,3.7-4c0.9-1.7,1.3-3.7,1.3-5.9c0-2.2-0.4-4.1-1.3-5.9c-0.9-1.7-2.1-3.1-3.7-4.1c-1.6-1-3.5-1.5-5.6-1.5
			s-4,0.5-5.6,1.5c-1.6,1-2.8,2.4-3.7,4.1c-0.9,1.7-1.3,3.7-1.3,5.9c0,2.2,0.4,4.1,1.3,5.9c0.9,1.7,2.1,3.1,3.7,4
			C766.9,753,768.8,753.5,770.9,753.5z"/>
		<path class="st0" d="M829.4,719.8c2.9,0,5.7,0.6,8.4,1.8c2.7,1.2,5,3,6.7,5.6c1.8,2.6,2.6,5.9,2.6,10v25.8h-13v-23.6
			c0-3.4-0.8-6-2.4-7.7c-1.6-1.7-3.7-2.5-6.4-2.5c-1.7,0-3.3,0.5-4.9,1.4c-1.6,0.9-2.8,2.2-3.8,3.9c-1,1.7-1.5,3.5-1.5,5.7v22.8h-13
			v-42h13v6.7c0.4-1.2,1.2-2.4,2.6-3.6c1.3-1.2,3-2.3,5.1-3.1C824.8,720.2,827,719.8,829.4,719.8z"/>
		<path class="st0" d="M445.9,796.3h12.8l26,67.5h-13.6l-5.3-14.6h-27l-5.4,14.6h-13.7L445.9,796.3z M443.1,837.9h18.6l-9.3-26.2
			h-0.2L443.1,837.9z"/>
		<path class="st0" d="M523.9,863.8v-7.3c-0.3,0.8-1.1,1.8-2.4,3.2c-1.3,1.4-3,2.6-5.1,3.7c-2.1,1.1-4.6,1.7-7.5,1.7
			c-4,0-7.6-1-10.7-2.9c-3.1-1.9-5.5-4.6-7.3-7.9c-1.8-3.4-2.6-7.2-2.6-11.4c0-4.2,0.9-8,2.6-11.4c1.8-3.4,4.2-6,7.3-8
			c3.1-1.9,6.7-2.9,10.7-2.9c2.8,0,5.2,0.5,7.3,1.4c2.1,0.9,3.7,2,5,3.3c1.3,1.2,2.1,2.4,2.5,3.4v-6.8h12.9v42H523.9z M512.1,886.3
			c-3.1,0-6-0.3-8.8-0.9c-2.8-0.6-5.4-1.5-7.6-2.7c-2.3-1.2-4.2-2.8-5.7-4.8l7.9-8c0.7,0.9,1.6,1.9,2.8,2.8c1.1,0.9,2.6,1.7,4.4,2.4
			c1.8,0.6,4,0.9,6.7,0.9c2.5,0,4.7-0.5,6.5-1.5c1.8-1,3.2-2.3,4.2-4.1c1-1.8,1.5-3.8,1.5-6.2V863h12.7v1.9c0,4.6-1.1,8.5-3.3,11.7
			c-2.2,3.2-5.1,5.6-8.8,7.2C520.9,885.5,516.7,886.3,512.1,886.3z M501.1,842.8c0,2.4,0.5,4.4,1.6,6.2c1.1,1.8,2.5,3.2,4.2,4.2
			c1.7,1,3.6,1.5,5.7,1.5c2.1,0,4.1-0.5,5.7-1.5c1.7-1,3-2.4,4-4.2c1-1.8,1.5-3.8,1.5-6.2c0-2.3-0.5-4.4-1.5-6.2
			c-1-1.8-2.3-3.2-4-4.2c-1.7-1-3.6-1.5-5.7-1.5c-2,0-3.9,0.5-5.7,1.5c-1.7,1-3.1,2.4-4.2,4.2C501.6,838.4,501.1,840.5,501.1,842.8z
			"/>
		<path class="st0" d="M557.2,845.7c0.1,1.9,0.6,3.6,1.5,5.1c0.9,1.5,2.3,2.7,4,3.5c1.8,0.9,3.9,1.3,6.4,1.3c2.2,0,4.1-0.3,5.8-0.8
			c1.7-0.5,3.1-1.2,4.3-2c1.2-0.8,2-1.6,2.6-2.4l5.4,7.9c-1,1.2-2.3,2.3-3.8,3.4c-1.6,1-3.6,1.8-6,2.4c-2.4,0.6-5.5,0.9-9.1,0.9
			c-4.6,0-8.6-0.9-12.1-2.7c-3.5-1.8-6.2-4.4-8.2-7.8c-2-3.4-2.9-7.5-2.9-12.2c0-4.1,0.9-7.8,2.6-11.1c1.8-3.3,4.3-5.9,7.6-7.8
			c3.3-1.9,7.3-2.9,12-2.9c4.4,0,8.2,0.8,11.4,2.5c3.2,1.7,5.7,4.2,7.5,7.4c1.8,3.2,2.7,7.2,2.7,11.9c0,0.3,0,0.8,0,1.7
			c0,0.9-0.1,1.4-0.1,1.6H557.2z M576.7,837.7c0-1.1-0.4-2.3-1-3.5c-0.6-1.3-1.6-2.3-3-3.2c-1.3-0.9-3.1-1.3-5.3-1.3
			c-2.2,0-4,0.4-5.4,1.3c-1.4,0.9-2.5,1.9-3.2,3.1c-0.7,1.2-1.1,2.4-1.3,3.6H576.7z"/>
		<path class="st0" d="M624.4,820.6c2.9,0,5.7,0.6,8.4,1.8c2.7,1.2,5,3,6.7,5.6c1.8,2.6,2.6,5.9,2.6,10v25.8h-13v-23.6
			c0-3.4-0.8-6-2.4-7.7c-1.6-1.7-3.7-2.5-6.4-2.5c-1.7,0-3.3,0.5-4.9,1.4c-1.6,0.9-2.8,2.2-3.8,3.9c-1,1.7-1.5,3.5-1.5,5.7v22.8h-13
			v-42h13v6.7c0.4-1.2,1.2-2.4,2.6-3.6c1.3-1.2,3-2.3,5.1-3.1C619.9,821,622.1,820.6,624.4,820.6z"/>
		<path class="st0" d="M673.9,854.7c2.2,0,4-0.4,5.4-1.1c1.4-0.7,2.3-1.3,2.8-1.7l6,9c-0.5,0.4-1.4,0.9-2.7,1.6
			c-1.3,0.7-2.9,1.3-4.9,1.8c-2,0.5-4.3,0.8-6.8,0.8c-4.4,0-8.4-0.9-11.9-2.7c-3.5-1.8-6.3-4.3-8.3-7.7c-2-3.3-3-7.3-3-11.9
			c0-4.6,1-8.6,3-11.9c2-3.3,4.8-5.9,8.3-7.6c3.5-1.8,7.5-2.7,11.9-2.7c2.5,0,4.8,0.3,6.7,0.8c2,0.5,3.6,1.2,4.9,1.9
			c1.3,0.7,2.3,1.3,2.8,1.7l-6.2,9c-0.2-0.3-0.7-0.6-1.4-1.1c-0.7-0.5-1.6-0.9-2.7-1.3c-1.1-0.4-2.4-0.6-4-0.6
			c-1.9,0-3.7,0.5-5.3,1.5c-1.7,1-3.1,2.4-4.1,4.1c-1.1,1.8-1.6,3.9-1.6,6.2c0,2.4,0.5,4.5,1.6,6.3c1.1,1.8,2.4,3.2,4.1,4.2
			C670.2,854.2,672,854.7,673.9,854.7z"/>
		<path class="st0" d="M715.1,852.4l12.4-30.6h12.8l-28.7,63.3h-13l9.7-21.3l-17.4-42h13L715.1,852.4z"/>
	</g>
	<g>
		<path class="st0" d="M232,808.4c-1.4,0-2.6-1.2-2.6-2.6l0.5-175.4c0.1-19.8,16.2-35.9,36-35.8s35.9,16.2,35.8,36l0,0L301.3,806
			c0,1.4-1.2,2.6-2.6,2.6c-1.4,0-2.6-1.2-2.6-2.6l0.5-175.4c0.1-16.9-13.6-30.7-30.6-30.8c-16.9-0.1-30.7,13.6-30.8,30.6l0,0
			l-0.5,175.4C234.7,807.2,233.5,808.4,232,808.4z"/>
		<path class="st0" d="M284,804.4l0.5-183.5c0-0.3,0.2-0.5,0.5-0.5c0.3,0,0.5,0.2,0.5,0.5L285,804.4c0,0.3-0.2,0.5-0.5,0.5
			S284,804.6,284,804.4z"/>
		<path class="st0" d="M271.4,804.3l0.5-183.5c0-0.3,0.2-0.5,0.5-0.5c0.3,0,0.5,0.2,0.5,0.5l-0.5,183.5c0,0.3-0.2,0.5-0.5,0.5
			C271.6,804.8,271.4,804.6,271.4,804.3z"/>
		<path class="st0" d="M258.8,804.3l0.5-183.5c0-0.3,0.2-0.5,0.5-0.5c0.3,0,0.5,0.2,0.5,0.5l-0.5,183.5c0,0.3-0.2,0.5-0.5,0.5
			C259,804.8,258.8,804.6,258.8,804.3z"/>
		<path class="st0" d="M246.2,804.2l0.5-183.5c0-0.3,0.2-0.5,0.5-0.5s0.5,0.2,0.5,0.5l-0.5,183.5c0,0.3-0.2,0.5-0.5,0.5
			C246.4,804.8,246.2,804.5,246.2,804.2z"/>
		<path class="st0" d="M381.7,648.1c1.4,0,2.6,1.2,2.6,2.6l-0.5,175.4c-0.1,19.8-16.2,35.9-36,35.8c-19.8-0.1-35.9-16.2-35.8-36l0,0
			l0.5-175.4c0-1.4,1.2-2.6,2.6-2.6s2.6,1.2,2.6,2.6l-0.5,175.4c-0.1,16.9,13.6,30.7,30.6,30.8s30.7-13.6,30.8-30.6l0,0l0.5-175.4
			C379.1,649.2,380.3,648.1,381.7,648.1z"/>
		<path class="st0" d="M329.8,652.1l-0.5,183.5c0,0.3-0.2,0.5-0.5,0.5s-0.5-0.2-0.5-0.5l0.5-183.5c0-0.3,0.2-0.5,0.5-0.5
			C329.6,651.6,329.8,651.8,329.8,652.1z"/>
		<path class="st0" d="M342.4,652.2l-0.5,183.5c0,0.3-0.2,0.5-0.5,0.5c-0.3,0-0.5-0.2-0.5-0.5l0.5-183.5c0-0.3,0.2-0.5,0.5-0.5
			C342.2,651.6,342.4,651.9,342.4,652.2z"/>
		<path class="st0" d="M355,652.2l-0.5,183.5c0,0.3-0.2,0.5-0.5,0.5c-0.3,0-0.5-0.2-0.5-0.5l0.5-183.5c0-0.3,0.2-0.5,0.5-0.5
			C354.8,651.7,355,651.9,355,652.2z"/>
		<path class="st0" d="M367.6,652.2L367,835.8c0,0.3-0.2,0.5-0.5,0.5s-0.5-0.2-0.5-0.5l0.5-183.5c0-0.3,0.2-0.5,0.5-0.5
			C367.3,651.7,367.6,651.9,367.6,652.2z"/>
	</g>
	<g>
		<rect x="894.2" y="594.5" width="2.5" height="310.9"/>
		<path d="M897.3,906.1h-3.7V593.9h3.7V906.1z M894.8,904.8h1.2V595.2h-1.2V904.8z"/>
	</g>
</g>
</svg>
