<svg width="195" height="59" viewBox="0 0 195 59" fill="none" xmlns="http://www.w3.org/2000/svg">
<path d="M141.124 10.4102C141.873 10.4102 142.509 10.5038 143.052 10.6723C143.577 10.8596 144.007 11.0281 144.307 11.2341C144.607 11.4214 144.775 11.5525 144.831 11.6087L144.195 12.5824C144.101 12.4888 143.914 12.3577 143.652 12.1892C143.389 12.0206 143.071 11.8708 142.659 11.721C142.247 11.5899 141.779 11.515 141.217 11.515C140.337 11.515 139.644 11.7023 139.139 12.0768C138.633 12.4513 138.371 12.957 138.371 13.6124C138.371 14.0618 138.502 14.4364 138.764 14.7735C139.026 15.1105 139.401 15.4102 139.85 15.6723C140.318 15.9345 140.843 16.2154 141.423 16.4776C141.873 16.6836 142.341 16.9083 142.809 17.1705C143.277 17.4326 143.689 17.7135 144.082 18.0693C144.476 18.4251 144.775 18.7997 145.019 19.2678C145.262 19.7173 145.374 20.2416 145.374 20.8409C145.374 21.3839 145.262 21.8708 145.037 22.3203C144.813 22.7697 144.513 23.1442 144.101 23.4813C143.708 23.7997 143.221 24.0618 142.678 24.2304C142.135 24.3989 141.536 24.4925 140.88 24.4925C140.094 24.4925 139.401 24.3989 138.764 24.1929C138.127 23.9869 137.622 23.7809 137.228 23.5749C136.835 23.3502 136.629 23.2379 136.573 23.1817L137.266 22.1705C137.341 22.2454 137.491 22.339 137.697 22.4701C137.903 22.6012 138.165 22.751 138.483 22.8821C138.801 23.0319 139.157 23.1442 139.569 23.2379C139.981 23.3315 140.431 23.3877 140.918 23.3877C141.966 23.3877 142.772 23.1442 143.315 22.6573C143.858 22.1704 144.139 21.5525 144.139 20.8034C144.139 20.2229 143.97 19.7173 143.614 19.3053C143.258 18.8933 142.809 18.5188 142.266 18.2191C141.723 17.9008 141.142 17.6012 140.543 17.3203C139.906 17.0206 139.345 16.7023 138.82 16.3839C138.315 16.0469 137.903 15.6536 137.584 15.2042C137.285 14.7547 137.116 14.2304 137.116 13.5937C137.116 12.9757 137.285 12.4514 137.64 11.9645C137.996 11.4963 138.464 11.1218 139.064 10.8596C139.7 10.5412 140.374 10.4102 141.124 10.4102Z" fill="black"/>
<path d="M146.966 15.785H148.727V12.3206H149.888V15.785H152.191V16.8337H149.888V21.8337C149.888 22.3955 149.981 22.7887 150.187 23.0322C150.393 23.2756 150.655 23.388 150.955 23.388C151.255 23.388 151.479 23.3318 151.629 23.2382C151.779 23.1445 151.873 23.0696 151.891 23.0322L152.434 23.931C152.397 23.9685 152.303 24.0247 152.154 24.1183C152.004 24.2119 151.816 24.2869 151.592 24.3618C151.367 24.4367 151.086 24.4741 150.749 24.4741C150.187 24.4741 149.7 24.2868 149.307 23.931C148.914 23.5565 148.708 22.976 148.708 22.1708V16.8711H146.948V15.785H146.966Z" fill="black"/>
<path d="M155.281 20.1857C155.281 21.1782 155.506 21.946 155.936 22.5265C156.367 23.107 157.022 23.3879 157.903 23.3879C158.783 23.3879 159.438 23.107 159.869 22.5265C160.3 21.946 160.524 21.1594 160.524 20.1857V15.7849H161.704V20.3917C161.704 21.1782 161.554 21.8711 161.255 22.489C160.955 23.107 160.524 23.5752 159.963 23.931C159.401 24.2868 158.708 24.4553 157.903 24.4553C157.097 24.4553 156.404 24.2868 155.843 23.931C155.281 23.5752 154.85 23.107 154.551 22.489C154.251 21.8711 154.101 21.1782 154.101 20.3917V15.7849H155.262V20.1857H155.281Z" fill="black"/>
<path d="M168.127 24.4553C167.36 24.4553 166.685 24.2867 166.067 23.9309C165.449 23.5751 164.963 23.0695 164.607 22.3954C164.251 21.7212 164.064 20.9347 164.064 19.9983C164.064 19.062 164.251 18.2755 164.607 17.6013C164.963 16.9272 165.449 16.4216 166.067 16.0658C166.685 15.7099 167.378 15.5227 168.127 15.5227C168.783 15.5227 169.345 15.635 169.85 15.8785C170.356 16.1219 170.749 16.4028 171.049 16.7025C171.348 17.0208 171.498 17.283 171.536 17.5077V10.0732H172.734V24.1931H171.573V22.4328C171.517 22.6575 171.348 22.9197 171.049 23.238C170.749 23.5564 170.356 23.8373 169.85 24.0807C169.345 24.3242 168.764 24.4553 168.127 24.4553ZM168.258 23.4253C168.858 23.4253 169.401 23.2942 169.888 23.0133C170.375 22.7324 170.768 22.3392 171.067 21.8148C171.367 21.3092 171.517 20.6912 171.517 19.9983C171.517 19.3055 171.367 18.6875 171.067 18.1819C170.768 17.6762 170.375 17.2643 169.888 16.9834C169.401 16.7025 168.858 16.5527 168.258 16.5527C167.734 16.5527 167.228 16.6837 166.76 16.9646C166.292 17.2455 165.918 17.6388 165.637 18.1444C165.356 18.65 165.206 19.268 165.206 19.9796C165.206 20.6912 165.356 21.3092 165.637 21.8148C165.918 22.3204 166.292 22.7137 166.76 22.9946C167.228 23.2942 167.734 23.4253 168.258 23.4253Z" fill="black"/>
<path d="M177.94 23.0883L181.049 15.7849H182.266L176.611 28.4816H175.393L177.303 24.2119L173.839 15.7849H175.056L177.94 23.0883Z" fill="black"/>
<path d="M141.199 30.6165H142.453L147.303 44.1745H146.086L144.831 40.6726H138.839L137.566 44.1745H136.33L141.199 30.6165ZM139.176 39.5678H144.476L141.835 32.0584H141.798L139.176 39.5678Z" fill="black"/>
<path d="M148.839 44.1555V30.0356H150.037V37.4701C150.075 37.2454 150.225 36.9832 150.524 36.6649C150.805 36.3465 151.198 36.0843 151.704 35.8409C152.21 35.5974 152.79 35.4851 153.446 35.4851C154.213 35.4851 154.906 35.6723 155.506 36.0282C156.124 36.384 156.61 36.8896 156.966 37.5637C157.322 38.2379 157.509 39.0244 157.509 39.9607C157.509 40.8971 157.322 41.6836 156.966 42.3577C156.61 43.0319 156.124 43.5375 155.506 43.8933C154.888 44.2491 154.195 44.4177 153.446 44.4177C152.809 44.4177 152.228 44.2866 151.723 44.0431C151.217 43.7997 150.824 43.5188 150.524 43.2004C150.225 42.8821 150.056 42.6199 150.019 42.3952V44.1555H148.839ZM156.311 39.9607C156.311 39.2491 156.161 38.6312 155.88 38.1255C155.599 37.6199 155.225 37.2079 154.757 36.9458C154.288 36.6649 153.801 36.5338 153.258 36.5338C152.678 36.5338 152.135 36.6836 151.629 36.9645C151.142 37.2454 150.749 37.6386 150.449 38.163C150.15 38.6686 150 39.2866 150 39.9795C150 40.6723 150.15 41.2903 150.449 41.7959C150.749 42.3016 151.142 42.7136 151.629 42.9944C152.116 43.2753 152.659 43.4064 153.258 43.4064C153.801 43.4064 154.307 43.2753 154.757 42.9944C155.225 42.7136 155.599 42.3203 155.88 41.8147C156.18 41.2716 156.311 40.6723 156.311 39.9607Z" fill="black"/>
<path d="M160.543 44.1555H159.401V35.7286H160.543V37.2454H160.487C160.506 37.0769 160.637 36.8334 160.861 36.5712C161.086 36.2903 161.386 36.0469 161.779 35.8222C162.154 35.5975 162.622 35.4851 163.127 35.4851C163.521 35.4851 163.858 35.5413 164.157 35.6349C164.438 35.7286 164.644 35.8409 164.757 35.9346L164.251 36.9271C164.157 36.8334 163.989 36.7585 163.745 36.6649C163.502 36.5712 163.202 36.5338 162.865 36.5338C162.397 36.5338 161.985 36.6836 161.648 37.002C161.311 37.3203 161.03 37.6949 160.843 38.1256C160.655 38.5563 160.562 38.9495 160.562 39.3241V44.1555H160.543Z" fill="black"/>
<path d="M169.588 44.4177C168.745 44.4177 167.996 44.2117 167.341 43.8184C166.685 43.4252 166.18 42.9008 165.805 42.2267C165.431 41.5525 165.243 40.8035 165.243 39.9795C165.243 39.1555 165.431 38.3877 165.805 37.7136C166.18 37.0394 166.685 36.4963 167.341 36.0844C167.996 35.6911 168.745 35.4851 169.588 35.4851C170.431 35.4851 171.18 35.6911 171.816 36.0844C172.472 36.4776 172.978 37.0207 173.333 37.7136C173.708 38.3877 173.895 39.1555 173.895 39.9795C173.895 40.8035 173.708 41.5525 173.333 42.2267C172.959 42.9008 172.453 43.4252 171.816 43.8184C171.161 44.2117 170.431 44.4177 169.588 44.4177ZM169.588 43.3503C170.225 43.3503 170.787 43.2005 171.255 42.9008C171.723 42.6012 172.097 42.208 172.36 41.6836C172.622 41.178 172.753 40.5975 172.753 39.9608C172.753 39.3241 172.622 38.7435 172.36 38.2192C172.097 37.6949 171.723 37.2829 171.255 36.9832C170.787 36.6836 170.225 36.5338 169.588 36.5338C168.951 36.5338 168.39 36.6836 167.903 36.9832C167.416 37.2829 167.041 37.6949 166.779 38.2192C166.517 38.7435 166.386 39.3241 166.386 39.9608C166.386 40.5975 166.517 41.178 166.779 41.6836C167.041 42.1892 167.416 42.6012 167.903 42.9008C168.371 43.2005 168.933 43.3503 169.588 43.3503Z" fill="black"/>
<path d="M182.903 44.1555V42.3952C182.846 42.5825 182.697 42.8259 182.434 43.163C182.172 43.4814 181.798 43.781 181.311 44.0244C180.843 44.2866 180.281 44.4177 179.625 44.4177C178.858 44.4177 178.165 44.2492 177.528 43.8934C176.891 43.5375 176.367 43.0319 175.993 42.3578C175.599 41.6836 175.412 40.8971 175.412 39.9608C175.412 39.0244 175.599 38.2379 175.993 37.5638C176.386 36.8896 176.891 36.384 177.528 36.0282C178.165 35.6724 178.876 35.4851 179.625 35.4851C180.281 35.4851 180.843 35.5975 181.311 35.8409C181.779 36.0844 182.154 36.3653 182.434 36.6836C182.715 37.002 182.865 37.2641 182.903 37.4701V35.7286H184.045V44.1555H182.903ZM176.554 39.9608C176.554 40.6724 176.704 41.2904 177.022 41.796C177.322 42.3016 177.734 42.6948 178.221 42.9757C178.708 43.2566 179.232 43.3877 179.775 43.3877C180.375 43.3877 180.899 43.2566 181.367 42.9757C181.835 42.6948 182.191 42.3016 182.472 41.7772C182.734 41.2716 182.884 40.6537 182.884 39.9608C182.884 39.2679 182.753 38.6499 182.472 38.1443C182.21 37.6387 181.835 37.2267 181.367 36.9458C180.899 36.6649 180.375 36.5151 179.775 36.5151C179.232 36.5151 178.727 36.6462 178.221 36.9271C177.734 37.208 177.341 37.6012 177.022 38.1068C176.704 38.6312 176.554 39.2492 176.554 39.9608Z" fill="black"/>
<path d="M190.393 44.4177C189.625 44.4177 188.951 44.2491 188.333 43.8933C187.715 43.5375 187.228 43.0319 186.873 42.3577C186.517 41.6836 186.33 40.8971 186.33 39.9607C186.33 39.0244 186.517 38.2379 186.873 37.5637C187.228 36.8896 187.734 36.384 188.333 36.0282C188.951 35.6723 189.644 35.4851 190.393 35.4851C191.049 35.4851 191.61 35.5974 192.116 35.8409C192.622 36.0843 193.015 36.3652 193.315 36.6649C193.614 36.9832 193.764 37.2454 193.801 37.4701V30.0356H195V44.1555H193.839V42.3952C193.783 42.6199 193.614 42.8821 193.315 43.2004C193.015 43.5188 192.622 43.7997 192.116 44.0431C191.61 44.2866 191.03 44.4177 190.393 44.4177ZM190.524 43.3877C191.124 43.3877 191.667 43.2566 192.154 42.9757C192.64 42.6948 193.034 42.3016 193.333 41.7772C193.633 41.2716 193.783 40.6536 193.783 39.9607C193.783 39.2679 193.633 38.6499 193.333 38.1443C193.034 37.6386 192.64 37.2266 192.154 36.9458C191.667 36.6649 191.124 36.515 190.524 36.515C189.981 36.515 189.494 36.6461 189.026 36.927C188.558 37.2079 188.183 37.6012 187.903 38.1068C187.622 38.6124 187.472 39.2304 187.472 39.942C187.472 40.6536 187.622 41.2716 187.903 41.7772C188.183 42.2828 188.558 42.6761 189.026 42.957C189.494 43.2379 190 43.3877 190.524 43.3877Z" fill="black"/>
<path d="M39.0075 2.58266H35.8427V0.466553H44.5693V2.58266H41.4045V13.107H39.0075V2.58266Z" fill="#12753E"/>
<path d="M47.8464 13.1067H45.412V5.24157H47.8464V6.51497H47.7903C47.8277 6.36516 47.9588 6.15917 48.1648 5.93445C48.3708 5.69101 48.6517 5.48501 49.0075 5.29774C49.3633 5.11048 49.794 5.01685 50.2996 5.01685C50.6554 5.01685 50.9925 5.07303 51.2921 5.16667C51.5918 5.27903 51.7978 5.37265 51.9288 5.48501L50.9738 7.47004C50.8989 7.3764 50.7303 7.26404 50.5056 7.15168C50.2809 7.03932 50 6.98314 49.6629 6.98314C49.2697 6.98314 48.9326 7.09551 48.6517 7.32023C48.3895 7.54494 48.1835 7.80711 48.0524 8.12547C47.9214 8.44382 47.8464 8.74345 47.8464 9.00562V13.1067Z" fill="#12753E"/>
<path d="M55.1311 9.00575C55.1311 9.71736 55.2622 10.2604 55.5618 10.6911C55.8427 11.1031 56.2921 11.3278 56.9288 11.3278C57.5655 11.3278 58.015 11.1219 58.2959 10.6911C58.5768 10.2792 58.7266 9.71736 58.7266 9.00575V5.2417H61.1236V9.28665C61.1236 10.0919 60.9551 10.8035 60.6367 11.4215C60.3184 12.0395 59.8315 12.5076 59.2135 12.8447C58.5955 13.1818 57.8277 13.3503 56.9288 13.3503C56.0487 13.3503 55.2809 13.1818 54.6629 12.8447C54.0449 12.5076 53.5581 12.0395 53.2397 11.4215C52.9213 10.8035 52.7528 10.0919 52.7528 9.28665V5.2417H55.1498V9.00575H55.1311Z" fill="#12753E"/>
<path d="M66.3109 5.01685C66.779 5.01685 67.2285 5.0543 67.6217 5.14793C68.015 5.24157 68.3708 5.33521 68.633 5.44757C68.9139 5.55993 69.1011 5.65356 69.176 5.72847L68.3333 7.18914C68.2022 7.0955 67.9775 6.96441 67.6404 6.83333C67.3034 6.68351 66.9476 6.62734 66.5356 6.62734C66.1798 6.62734 65.8614 6.68352 65.618 6.81461C65.3745 6.94569 65.2434 7.13296 65.2434 7.3764C65.2434 7.61985 65.3745 7.82584 65.6367 7.97566C65.8989 8.12547 66.2734 8.25656 66.7603 8.35019C67.1536 8.4251 67.5655 8.55618 67.9401 8.72472C68.3333 8.89326 68.6517 9.1367 68.9139 9.45505C69.176 9.7734 69.2884 10.1854 69.2884 10.7097C69.2884 11.2341 69.176 11.6648 68.9513 12.0019C68.7266 12.339 68.4457 12.6199 68.0712 12.8071C67.7154 13.0131 67.3034 13.1442 66.8727 13.2378C66.4419 13.3127 66.0112 13.3689 65.5805 13.3689C65.0187 13.3689 64.5318 13.3127 64.1198 13.2191C63.6891 13.1067 63.3521 12.9944 63.0712 12.8633C62.7903 12.7322 62.603 12.6011 62.4906 12.5075L63.3333 10.8783C63.5019 11.0281 63.764 11.1779 64.1573 11.3652C64.5318 11.5337 64.9438 11.6273 65.3933 11.6273C65.8614 11.6273 66.2172 11.5524 66.4794 11.3839C66.7416 11.2153 66.8727 11.0094 66.8727 10.7472C66.8727 10.5412 66.8165 10.3914 66.6854 10.2603C66.5543 10.1292 66.3858 10.0356 66.1611 9.94195C65.9363 9.86704 65.6742 9.79213 65.3745 9.71723C65.0936 9.66105 64.8127 9.56741 64.5318 9.45505C64.2509 9.34269 63.97 9.19289 63.7266 9.00562C63.4831 8.81835 63.2772 8.59363 63.1273 8.31273C62.9775 8.03183 62.9026 7.69476 62.9026 7.32023C62.9026 6.81461 63.0712 6.40262 63.3895 6.06554C63.7079 5.72846 64.1198 5.46628 64.6442 5.29774C65.1873 5.11048 65.7303 5.01685 66.3109 5.01685Z" fill="#12753E"/>
<path d="M70.2434 5.24173H71.6667V2.02075H74.0824V5.24173H75.9363V7.2642H74.0824V10.1106C74.0824 10.4852 74.1386 10.7848 74.2697 10.9908C74.382 11.1968 74.588 11.3091 74.8502 11.3091C75.0562 11.3091 75.206 11.2717 75.3371 11.1968C75.4682 11.1219 75.5431 11.0657 75.5618 11.0283L76.4232 12.7698C76.3858 12.8073 76.2547 12.8822 76.0487 12.9758C75.8427 13.0694 75.5805 13.1631 75.2622 13.238C74.9438 13.3129 74.5693 13.3503 74.176 13.3503C73.4457 13.3503 72.8652 13.1444 72.3783 12.7136C71.9101 12.3017 71.6667 11.6462 71.6667 10.7661V7.2642H70.2434V5.24173Z" fill="#12753E"/>
<path d="M36.5543 19.324H44.4007V21.4401H38.9326V24.6049H44.3258V26.6461H38.9326V29.8483H44.4007V31.9644H36.5543V19.324Z" fill="#12753E"/>
<path d="M50.1311 32.2083C49.382 32.2083 48.7266 32.021 48.1648 31.6652C47.603 31.3094 47.1536 30.8038 46.8352 30.1858C46.5168 29.5491 46.367 28.8375 46.367 28.051C46.367 27.2645 46.5168 26.5529 46.8352 25.9162C47.1536 25.2795 47.5843 24.7926 48.1648 24.418C48.7266 24.0622 49.382 23.875 50.1311 23.875C50.6554 23.875 51.1236 23.9686 51.5356 24.1371C51.9476 24.3057 52.2846 24.5117 52.5281 24.7551C52.7715 24.9985 52.9213 25.2045 52.9775 25.3918V18.8H55.412V31.9836H52.9963V30.6165C52.9026 30.8412 52.6966 31.0847 52.4344 31.3281C52.1536 31.5716 51.8165 31.7963 51.4232 31.9648C51.03 32.1147 50.5992 32.2083 50.1311 32.2083ZM50.8052 30.2794C51.2172 30.2794 51.573 30.1858 51.9101 29.9986C52.2285 29.8113 52.4906 29.5491 52.6779 29.212C52.8652 28.875 52.9588 28.5004 52.9588 28.051C52.9588 27.6203 52.8652 27.227 52.6779 26.8899C52.4906 26.5529 52.2285 26.2907 51.9101 26.1034C51.5918 25.9162 51.2172 25.8225 50.8052 25.8225C50.4307 25.8225 50.0749 25.9162 49.7753 26.1034C49.4569 26.2907 49.2135 26.5529 49.0262 26.8899C48.8389 27.227 48.7453 27.6203 48.7453 28.051C48.7453 28.4817 48.8389 28.875 49.0262 29.212C49.2135 29.5491 49.4569 29.8113 49.7753 29.9986C50.0936 30.1858 50.4307 30.2794 50.8052 30.2794Z" fill="#12753E"/>
<path d="M59.4569 27.8822C59.4569 28.5938 59.588 29.1369 59.8876 29.5676C60.1685 29.9796 60.618 30.2043 61.2547 30.2043C61.8914 30.2043 62.3408 29.9983 62.6217 29.5676C62.9026 29.1556 63.0524 28.5938 63.0524 27.8822V24.1182H65.4494V28.1631C65.4494 28.9684 65.2809 29.68 64.9625 30.2979C64.6442 30.9159 64.1573 31.3841 63.5393 31.7212C62.9213 32.0582 62.1535 32.2268 61.2547 32.2268C60.3745 32.2268 59.6067 32.0582 58.9888 31.7212C58.3708 31.3841 57.8839 30.9159 57.5655 30.2979C57.2472 29.68 57.0786 28.9684 57.0786 28.1631V24.1182H59.4756V27.8822H59.4569Z" fill="#12753E"/>
<path d="M71.442 30.2793C71.8539 30.2793 72.191 30.2044 72.4532 30.0733C72.7154 29.9422 72.8839 29.8299 72.9775 29.755L74.1011 31.4404C74.0075 31.5153 73.839 31.6089 73.5955 31.74C73.3521 31.8711 73.0524 31.9834 72.6779 32.0771C72.3034 32.1707 71.8727 32.2269 71.4045 32.2269C70.5805 32.2269 69.8315 32.0583 69.176 31.7213C68.5206 31.3842 67.9963 30.916 67.6217 30.2793C67.2472 29.6613 67.0599 28.9123 67.0599 28.0508C67.0599 27.1894 67.2472 26.4404 67.6217 25.8224C67.9963 25.2044 68.5206 24.7175 69.176 24.3992C69.8315 24.0621 70.5805 23.8936 71.4045 23.8936C71.8727 23.8936 72.3034 23.9497 72.6592 24.0434C73.0337 24.137 73.3333 24.2681 73.5768 24.3992C73.8202 24.5302 74.0075 24.6426 74.1011 24.7175L72.9401 26.4029C72.9026 26.3467 72.809 26.2906 72.6779 26.1969C72.5468 26.1033 72.3783 26.0284 72.1723 25.9535C71.9663 25.8786 71.7229 25.8411 71.4232 25.8411C71.0674 25.8411 70.7303 25.9347 70.4307 26.122C70.1124 26.3093 69.8502 26.5715 69.6629 26.8898C69.4569 27.2269 69.3633 27.6201 69.3633 28.0508C69.3633 28.5003 69.4569 28.8936 69.6629 29.2306C69.8689 29.5677 70.1124 29.8299 70.4307 30.0171C70.7491 30.1857 71.0862 30.2793 71.442 30.2793Z" fill="#12753E"/>
<path d="M81.648 31.9834V30.6164C81.5918 30.7662 81.442 30.9535 81.1985 31.2156C80.9551 31.4778 80.6367 31.7025 80.2435 31.9085C79.8502 32.1145 79.382 32.2269 78.839 32.2269C78.0899 32.2269 77.4158 32.0396 76.8352 31.6838C76.2547 31.328 75.8053 30.8224 75.4682 30.2044C75.1311 29.5677 74.9813 28.8561 74.9813 28.0696C74.9813 27.2831 75.1498 26.5715 75.4682 25.9347C75.8053 25.298 76.2547 24.8112 76.8352 24.4366C77.4158 24.0808 78.0899 23.8936 78.839 23.8936C79.3633 23.8936 79.8128 23.9872 80.206 24.1557C80.5993 24.3243 80.8989 24.5302 81.1423 24.7737C81.3858 24.9984 81.5356 25.2231 81.6105 25.4104V24.137H84.0262V32.0022H81.648V31.9834ZM77.3783 28.0508C77.3783 28.5003 77.4719 28.8748 77.6779 29.2119C77.8839 29.549 78.1461 29.8112 78.4644 29.9984C78.7828 30.1857 79.1386 30.2793 79.5319 30.2793C79.9251 30.2793 80.2996 30.1857 80.5993 29.9984C80.9176 29.8112 81.1611 29.549 81.3483 29.2119C81.5356 28.8748 81.6292 28.5003 81.6292 28.0508C81.6292 27.6201 81.5356 27.2269 81.3483 26.8898C81.1611 26.5527 80.9176 26.2906 80.5993 26.1033C80.2809 25.916 79.9251 25.8224 79.5319 25.8224C79.1573 25.8224 78.8015 25.916 78.4644 26.1033C78.1461 26.2906 77.8839 26.5527 77.6779 26.8898C77.4907 27.2269 77.3783 27.6014 77.3783 28.0508Z" fill="#12753E"/>
<path d="M85.3745 24.1184H86.7978V20.8975H89.2135V24.1184H91.0674V26.1409H89.2135V28.9686C89.2135 29.3431 89.2697 29.6428 89.4008 29.8488C89.5131 30.0548 89.7191 30.1671 89.9813 30.1671C90.1873 30.1671 90.3371 30.1297 90.4682 30.0548C90.5993 29.9799 90.6742 29.9237 90.6929 29.8862L91.5543 31.6278C91.5169 31.6652 91.3858 31.7402 91.1798 31.8338C90.9738 31.9274 90.7116 32.0211 90.3933 32.096C90.0749 32.1709 89.7004 32.2083 89.3071 32.2083C88.5768 32.2083 87.9963 32.0023 87.5094 31.5716C87.0412 31.1596 86.7978 30.5042 86.7978 29.624V26.1222H85.3745V24.1184Z" fill="#12753E"/>
<path d="M94.1573 22.077C93.764 22.077 93.4082 21.9272 93.1461 21.6463C92.8652 21.3654 92.7341 21.0283 92.7341 20.6351C92.7341 20.2418 92.8652 19.9047 93.1648 19.6238C93.4457 19.3429 93.7828 19.1931 94.176 19.1931C94.4382 19.1931 94.6816 19.268 94.8876 19.3804C95.1123 19.5115 95.2809 19.68 95.412 19.9047C95.5431 20.1294 95.618 20.3729 95.618 20.6351C95.618 21.0283 95.4682 21.3654 95.1873 21.6463C94.8876 21.9459 94.5506 22.077 94.1573 22.077ZM92.9026 31.9834V24.1182H95.3183V31.9834H92.9026Z" fill="#12753E"/>
<path d="M101.405 32.2081C100.562 32.2081 99.8128 32.0208 99.1761 31.665C98.5206 31.3092 98.015 30.8223 97.6405 30.1856C97.2659 29.5676 97.0787 28.856 97.0787 28.0508C97.0787 27.2455 97.2659 26.5339 97.6405 25.916C98.015 25.2793 98.5206 24.7924 99.1761 24.4178C99.8315 24.0433 100.581 23.8748 101.405 23.8748C102.247 23.8748 102.996 24.062 103.633 24.4178C104.27 24.7924 104.775 25.2793 105.15 25.916C105.506 26.5527 105.693 27.2643 105.693 28.0508C105.693 28.856 105.506 29.5676 105.15 30.1856C104.794 30.8036 104.288 31.2905 103.633 31.665C102.996 32.0208 102.247 32.2081 101.405 32.2081ZM101.405 30.1856C101.798 30.1856 102.154 30.092 102.453 29.9047C102.753 29.7175 102.978 29.474 103.146 29.1557C103.315 28.8373 103.39 28.4628 103.39 28.0508C103.39 27.6388 103.315 27.283 103.146 26.9459C102.978 26.6276 102.753 26.3654 102.453 26.1781C102.154 25.9909 101.798 25.8972 101.405 25.8972C101.011 25.8972 100.655 25.9909 100.356 26.1781C100.056 26.3654 99.8315 26.6276 99.6629 26.9459C99.4944 27.2643 99.4195 27.6388 99.4195 28.0508C99.4195 28.4628 99.4944 28.8186 99.6629 29.1557C99.8315 29.474 100.056 29.7362 100.356 29.9047C100.655 30.092 101.011 30.1856 101.405 30.1856Z" fill="#12753E"/>
<path d="M112.36 23.8748C112.903 23.8748 113.427 23.9871 113.933 24.2118C114.438 24.4366 114.869 24.7736 115.187 25.2605C115.524 25.7474 115.674 26.3654 115.674 27.1332V31.9646H113.24V27.5452C113.24 26.9085 113.09 26.4216 112.79 26.1032C112.491 25.7849 112.097 25.6351 111.592 25.6351C111.273 25.6351 110.974 25.7287 110.674 25.8972C110.375 26.0658 110.15 26.3092 109.963 26.6276C109.775 26.9459 109.682 27.283 109.682 27.695V31.9646H107.247V24.0995H109.682V25.3542C109.757 25.1294 109.906 24.9047 110.169 24.68C110.412 24.4553 110.73 24.2493 111.124 24.0995C111.498 23.9497 111.91 23.8748 112.36 23.8748Z" fill="#12753E"/>
<path d="M40.5431 38.2004H42.9401L47.809 50.8409H45.2622L44.2696 48.1068H39.2135L38.2022 50.8409H35.6367L40.5431 38.2004ZM40.0187 45.9907H43.5019L41.7603 41.0843H41.7228L40.0187 45.9907Z" fill="#12753E"/>
<path d="M55.1498 50.8411V49.4741C55.0936 49.6239 54.9438 49.8112 54.7004 50.0733C54.4569 50.3355 54.1386 50.5602 53.7453 50.7662C53.352 50.9722 52.8839 51.0846 52.3408 51.0846C51.5917 51.0846 50.9176 50.8973 50.3371 50.5415C49.7565 50.1857 49.3071 49.6801 48.97 49.0621C48.6329 48.4254 48.4831 47.7138 48.4831 46.9273C48.4831 46.1407 48.6517 45.4291 48.97 44.7924C49.3071 44.1557 49.7565 43.6688 50.3371 43.2943C50.9176 42.9385 51.5917 42.7512 52.3408 42.7512C52.8651 42.7512 53.3146 42.8449 53.7078 43.0134C54.1011 43.1819 54.4007 43.3879 54.6442 43.6314C54.8876 43.8561 55.0374 44.0808 55.1123 44.2681V42.9947H57.5281V50.8598H55.1498V50.8411ZM52.9401 55.0546C52.3595 55.0546 51.8165 54.9984 51.2921 54.8861C50.7678 54.7737 50.2809 54.6052 49.8689 54.3804C49.4382 54.1557 49.0824 53.8561 48.8015 53.4816L50.2809 51.9834C50.412 52.152 50.5805 52.3392 50.8052 52.5078C51.0112 52.6763 51.2921 52.8261 51.6292 52.9572C51.9663 53.0696 52.3783 53.1258 52.8839 53.1258C53.352 53.1258 53.764 53.0321 54.1011 52.8449C54.4382 52.6576 54.7004 52.4142 54.8876 52.0771C55.0749 51.74 55.1685 51.3655 55.1685 50.916V50.6913H57.5468V51.0471C57.5468 51.9085 57.3408 52.6389 56.9288 53.2381C56.5168 53.8374 55.9738 54.2868 55.2809 54.5864C54.588 54.9048 53.8015 55.0546 52.9401 55.0546ZM50.8801 46.9085C50.8801 47.358 50.9738 47.7325 51.1798 48.0696C51.3858 48.4067 51.6479 48.6688 51.9663 48.8561C52.2846 49.0434 52.6404 49.137 53.0337 49.137C53.4269 49.137 53.8015 49.0434 54.1011 48.8561C54.4195 48.6688 54.6629 48.4067 54.8502 48.0696C55.0374 47.7325 55.1311 47.358 55.1311 46.9085C55.1311 46.4778 55.0374 46.0846 54.8502 45.7475C54.6629 45.4104 54.4195 45.1482 54.1011 44.961C53.7828 44.7737 53.4269 44.6801 53.0337 44.6801C52.6592 44.6801 52.3034 44.7737 51.9663 44.961C51.6479 45.1482 51.3858 45.4104 51.1798 45.7475C50.9738 46.0846 50.8801 46.4778 50.8801 46.9085Z" fill="#12753E"/>
<path d="M61.3858 47.4515C61.4045 47.8073 61.4982 48.1257 61.6667 48.4066C61.8352 48.6875 62.0974 48.9122 62.4158 49.062C62.7528 49.2305 63.1461 49.3055 63.6143 49.3055C64.0262 49.3055 64.3821 49.2493 64.7004 49.1556C65.0188 49.062 65.2809 48.9309 65.5056 48.7811C65.7304 48.6313 65.8802 48.4815 65.9925 48.3317L67.0038 49.8111C66.8165 50.0358 66.5731 50.2418 66.2922 50.4478C65.9925 50.635 65.618 50.7849 65.1686 50.8972C64.7191 51.0096 64.1386 51.0658 63.4644 51.0658C62.603 51.0658 61.854 50.8972 61.1985 50.5601C60.5431 50.2231 60.0375 49.7362 59.6629 49.0995C59.2884 48.4628 59.1199 47.695 59.1199 46.8148C59.1199 46.047 59.2884 45.3541 59.6068 44.7362C59.9438 44.1182 60.412 43.6313 61.03 43.2755C61.648 42.9197 62.397 42.7324 63.2772 42.7324C64.1011 42.7324 64.8128 42.8822 65.412 43.2006C66.0113 43.5189 66.4794 43.9871 66.8165 44.5864C67.1536 45.1856 67.3221 45.9347 67.3221 46.8148C67.3221 46.871 67.3221 46.9646 67.3221 47.1332C67.3221 47.3017 67.3034 47.3953 67.3034 47.4328H61.3858V47.4515ZM65.0375 45.9534C65.0375 45.7474 64.9626 45.5227 64.8502 45.298C64.7379 45.0545 64.5506 44.8673 64.2884 44.6987C64.045 44.5302 63.7079 44.4553 63.2959 44.4553C62.8839 44.4553 62.5468 44.5302 62.2847 44.6987C62.0225 44.8673 61.8165 45.0545 61.6854 45.2792C61.5543 45.504 61.4794 45.7287 61.442 45.9534H65.0375Z" fill="#12753E"/>
<path d="M73.97 42.7512C74.5131 42.7512 75.0374 42.8636 75.5431 43.0883C76.0487 43.313 76.4794 43.6501 76.7977 44.137C77.1348 44.6239 77.2846 45.2419 77.2846 46.0097V50.8411H74.8502V46.4216C74.8502 45.7849 74.7004 45.298 74.4007 44.9797C74.1011 44.6613 73.7079 44.5115 73.2022 44.5115C72.8839 44.5115 72.5843 44.6052 72.2846 44.7737C71.985 44.9422 71.7603 45.1857 71.573 45.504C71.3858 45.8224 71.2921 46.1595 71.2921 46.5715V50.8411H68.8577V42.9759H71.2921V44.2306C71.367 44.0059 71.5168 43.7812 71.779 43.5565C72.0225 43.3318 72.3408 43.1258 72.7341 42.9759C73.1273 42.8261 73.5393 42.7512 73.97 42.7512Z" fill="#12753E"/>
<path d="M83.2397 49.137C83.6517 49.137 83.9888 49.0621 84.2509 48.931C84.5131 48.7999 84.6816 48.6876 84.7753 48.6127L85.8989 50.298C85.8052 50.373 85.6367 50.4666 85.3933 50.5977C85.1498 50.7288 84.8502 50.8411 84.4756 50.9347C84.1011 51.0284 83.6704 51.0846 83.2022 51.0846C82.3783 51.0846 81.6292 50.916 80.9738 50.5789C80.3183 50.2419 79.794 49.7737 79.4195 49.137C79.0449 48.519 78.8577 47.77 78.8577 46.9085C78.8577 46.0471 79.0449 45.298 79.4195 44.6801C79.794 44.0621 80.3183 43.5752 80.9738 43.2568C81.6292 42.9198 82.3783 42.7512 83.2022 42.7512C83.6704 42.7512 84.1011 42.8074 84.4569 42.901C84.8315 42.9947 85.1311 43.1258 85.3745 43.2568C85.618 43.3879 85.8052 43.5003 85.8989 43.5752L84.7378 45.2606C84.7004 45.2044 84.6067 45.1482 84.4756 45.0546C84.3446 44.961 84.176 44.8861 83.97 44.8111C83.764 44.7362 83.5206 44.6988 83.221 44.6988C82.8652 44.6988 82.5281 44.7924 82.2285 44.9797C81.9101 45.167 81.6479 45.4291 81.4607 45.7475C81.2547 46.0846 81.161 46.4778 81.161 46.9085C81.161 47.358 81.2547 47.7512 81.4607 48.0883C81.6667 48.4254 81.9101 48.6876 82.2285 48.8748C82.5468 49.0434 82.8839 49.137 83.2397 49.137Z" fill="#12753E"/>
<path d="M90.955 48.7064L93.2771 42.9761H95.6741L90.2996 54.83H87.8652L89.6816 50.8412L86.4232 42.9761H88.8577L90.955 48.7064Z" fill="#12753E"/>
<path d="M0.486893 40.4665C0.22472 40.4665 0 40.2418 0 39.9796L0.093633 7.13317C0.11236 3.42531 3.12734 0.410315 6.83521 0.429042C10.5431 0.447768 13.5581 3.46275 13.5393 7.17062L13.4644 40.0171C13.4644 40.2792 13.2397 40.504 12.9775 40.504C12.7154 40.504 12.4906 40.2792 12.4906 40.0171L12.5843 7.17062C12.603 4.00582 10.0375 1.42155 6.85393 1.40283C3.68914 1.3841 1.10487 3.94965 1.08614 7.13317L0.99251 39.9796C0.99251 40.2418 0.767791 40.4665 0.486893 40.4665Z" fill="#12753E"/>
<path d="M10.2247 39.7174L10.3183 5.35413C10.3183 5.29795 10.3558 5.2605 10.412 5.2605C10.4681 5.2605 10.5056 5.29795 10.5056 5.35413L10.412 39.7174C10.412 39.7736 10.3745 39.8111 10.3183 39.8111C10.2622 39.8111 10.2247 39.7549 10.2247 39.7174Z" fill="#12753E"/>
<path d="M7.86517 39.6989L7.95881 5.33558C7.95881 5.2794 7.99626 5.24194 8.05244 5.24194C8.10862 5.24194 8.14607 5.2794 8.14607 5.33558L8.05244 39.6989C8.05244 39.7551 8.01499 39.7925 7.95881 39.7925C7.90263 39.7925 7.86517 39.7551 7.86517 39.6989Z" fill="#12753E"/>
<path d="M5.50562 39.6989L5.59925 5.33558C5.59925 5.2794 5.6367 5.24194 5.69288 5.24194C5.74906 5.24194 5.78651 5.2794 5.78651 5.33558L5.69288 39.6989C5.69288 39.7551 5.65543 39.7925 5.59925 39.7925C5.54307 39.7925 5.50562 39.7551 5.50562 39.6989Z" fill="#12753E"/>
<path d="M3.14609 39.6801L3.23972 5.31678C3.23972 5.2606 3.27717 5.22314 3.33335 5.22314C3.38953 5.22314 3.42699 5.2606 3.42699 5.31678L3.33335 39.6801C3.33335 39.7363 3.2959 39.7737 3.23972 39.7737C3.18354 39.7924 3.14609 39.7363 3.14609 39.6801Z" fill="#12753E"/>
<path d="M28.5206 10.4478C28.7828 10.4478 29.0075 10.6726 29.0075 10.9347L28.9139 43.7812C28.8951 47.489 25.8801 50.504 22.1723 50.4853C18.4644 50.4666 15.4494 47.4516 15.4682 43.7437L15.5618 10.8973C15.5618 10.6351 15.7865 10.4104 16.0487 10.4104C16.3109 10.4104 16.5356 10.6351 16.5356 10.8973L16.442 43.7437C16.4232 46.9085 18.9888 49.4928 22.1723 49.5115C25.3558 49.5303 27.9214 46.9647 27.9401 43.7812L28.0337 10.9347C28.0337 10.6538 28.2584 10.4478 28.5206 10.4478Z" fill="#12753E"/>
<path d="M18.8015 11.1969L18.7079 45.5602C18.7079 45.6164 18.6704 45.6538 18.6142 45.6538C18.5581 45.6538 18.5206 45.6164 18.5206 45.5602L18.6142 11.1969C18.6142 11.1407 18.6517 11.1033 18.7079 11.1033C18.764 11.1033 18.8015 11.1407 18.8015 11.1969Z" fill="#12753E"/>
<path d="M21.1611 11.2157L21.0674 45.579C21.0674 45.6352 21.03 45.6726 20.9738 45.6726C20.9176 45.6726 20.8802 45.6352 20.8802 45.579L20.9738 11.2157C20.9738 11.1595 21.0112 11.1221 21.0674 11.1221C21.1236 11.1034 21.1611 11.1595 21.1611 11.2157Z" fill="#12753E"/>
<path d="M23.5206 11.2157L23.427 45.579C23.427 45.6352 23.3895 45.6726 23.3333 45.6726C23.2772 45.6726 23.2397 45.6352 23.2397 45.579L23.3333 11.2157C23.3333 11.1595 23.3708 11.1221 23.427 11.1221C23.4832 11.1221 23.5206 11.1595 23.5206 11.2157Z" fill="#12753E"/>
<path d="M25.8801 11.2155L25.7678 45.5976C25.7678 45.6537 25.7303 45.6912 25.6741 45.6912C25.618 45.6912 25.5805 45.6537 25.5805 45.5976L25.6741 11.2342C25.6741 11.1781 25.7116 11.1406 25.7678 11.1406C25.824 11.1219 25.8801 11.1593 25.8801 11.2155Z" fill="#12753E"/>
<path d="M124.963 0.4104H124.494V58.6314H124.963V0.4104Z" fill="black"/>
<path d="M125.075 58.7625H124.382V0.298096H125.075V58.7625ZM124.607 58.5191H124.831V0.541539H124.607V58.5191Z" fill="black"/>
</svg>
