<svg width="195" height="59" viewBox="0 0 195 59" fill="none" xmlns="http://www.w3.org/2000/svg">
<path d="M141.124 10.1121C141.873 10.1121 142.509 10.2057 143.052 10.3742C143.577 10.5615 144.007 10.73 144.307 10.936C144.607 11.1233 144.775 11.2544 144.831 11.3106L144.195 12.2843C144.101 12.1907 143.914 12.0596 143.652 11.8911C143.39 11.7225 143.071 11.5727 142.659 11.4229C142.247 11.2918 141.779 11.2169 141.217 11.2169C140.337 11.2169 139.644 11.4042 139.139 11.7787C138.633 12.1533 138.371 12.6589 138.371 13.3143C138.371 13.7637 138.502 14.1383 138.764 14.4754C139.026 14.8124 139.401 15.1121 139.85 15.3742C140.318 15.6364 140.843 15.9173 141.423 16.1795C141.873 16.3855 142.341 16.6102 142.809 16.8724C143.277 17.1345 143.689 17.4154 144.082 17.7712C144.476 18.127 144.775 18.5016 145.019 18.9697C145.262 19.4192 145.375 19.9435 145.375 20.5428C145.375 21.0858 145.262 21.5727 145.037 22.0222C144.813 22.4716 144.513 22.8461 144.101 23.1832C143.708 23.5016 143.221 23.7637 142.678 23.9323C142.135 24.1008 141.536 24.1944 140.88 24.1944C140.094 24.1944 139.401 24.1008 138.764 23.8948C138.127 23.6888 137.622 23.4828 137.228 23.2769C136.835 23.0521 136.629 22.9398 136.573 22.8836L137.266 21.8724C137.341 21.9473 137.491 22.0409 137.697 22.172C137.903 22.3031 138.165 22.4529 138.483 22.584C138.801 22.7338 139.157 22.8461 139.569 22.9398C139.981 23.0334 140.431 23.0896 140.918 23.0896C141.966 23.0896 142.772 22.8461 143.315 22.3592C143.858 21.8724 144.139 21.2544 144.139 20.5053C144.139 19.9248 143.97 19.4192 143.614 19.0072C143.258 18.5952 142.809 18.2207 142.266 17.921C141.723 17.6027 141.142 17.3031 140.543 17.0222C139.906 16.7225 139.345 16.4042 138.82 16.0858C138.315 15.7488 137.903 15.3555 137.584 14.9061C137.285 14.4566 137.116 13.9323 137.116 13.2956C137.116 12.6776 137.285 12.1533 137.64 11.6664C137.996 11.1982 138.464 10.8237 139.064 10.5615C139.7 10.2431 140.375 10.1121 141.124 10.1121Z" fill="white"/>
<path d="M146.966 15.4869H148.727V12.0225H149.888V15.4869H152.191V16.5356H149.888V21.5356C149.888 22.0974 149.981 22.4906 150.187 22.7341C150.393 22.9775 150.655 23.0899 150.955 23.0899C151.255 23.0899 151.479 23.0337 151.629 22.9401C151.779 22.8464 151.873 22.7715 151.891 22.7341L152.434 23.6329C152.397 23.6704 152.303 23.7266 152.154 23.8202C152.004 23.9138 151.816 23.9888 151.592 24.0637C151.367 24.1386 151.086 24.176 150.749 24.176C150.187 24.176 149.7 23.9888 149.307 23.6329C148.914 23.2584 148.708 22.6779 148.708 21.8727V16.573H146.948V15.4869H146.966Z" fill="white"/>
<path d="M155.281 19.8876C155.281 20.8801 155.506 21.6479 155.936 22.2284C156.367 22.8089 157.023 23.0898 157.903 23.0898C158.783 23.0898 159.438 22.8089 159.869 22.2284C160.3 21.6479 160.524 20.8613 160.524 19.8876V15.4868H161.704V20.0936C161.704 20.8801 161.554 21.573 161.255 22.1909C160.955 22.8089 160.524 23.2771 159.963 23.6329C159.401 23.9887 158.708 24.1572 157.903 24.1572C157.097 24.1572 156.405 23.9887 155.843 23.6329C155.281 23.2771 154.85 22.8089 154.551 22.1909C154.251 21.573 154.101 20.8801 154.101 20.0936V15.4868H155.262V19.8876H155.281Z" fill="white"/>
<path d="M168.127 24.1572C167.36 24.1572 166.685 23.9886 166.067 23.6328C165.449 23.277 164.963 22.7714 164.607 22.0973C164.251 21.4231 164.064 20.6366 164.064 19.7002C164.064 18.7639 164.251 17.9774 164.607 17.3032C164.963 16.6291 165.449 16.1235 166.067 15.7677C166.685 15.4119 167.378 15.2246 168.127 15.2246C168.783 15.2246 169.345 15.3369 169.85 15.5804C170.356 15.8238 170.749 16.1047 171.049 16.4044C171.348 16.7227 171.498 16.9849 171.536 17.2096V9.77515H172.734V23.895H171.573V22.1347C171.517 22.3594 171.348 22.6216 171.049 22.94C170.749 23.2583 170.356 23.5392 169.85 23.7826C169.345 24.0261 168.764 24.1572 168.127 24.1572ZM168.258 23.1272C168.858 23.1272 169.401 22.9961 169.888 22.7152C170.375 22.4343 170.768 22.0411 171.067 21.5167C171.367 21.0111 171.517 20.3931 171.517 19.7002C171.517 19.0074 171.367 18.3894 171.067 17.8838C170.768 17.3782 170.375 16.9662 169.888 16.6853C169.401 16.4044 168.858 16.2546 168.258 16.2546C167.734 16.2546 167.228 16.3856 166.76 16.6665C166.292 16.9474 165.918 17.3407 165.637 17.8463C165.356 18.3519 165.206 18.9699 165.206 19.6815C165.206 20.3931 165.356 21.0111 165.637 21.5167C165.918 22.0223 166.292 22.4156 166.76 22.6965C167.228 22.9961 167.734 23.1272 168.258 23.1272Z" fill="white"/>
<path d="M177.94 22.7902L181.049 15.4868H182.266L176.611 28.1835H175.393L177.303 23.9138L173.839 15.4868H175.056L177.94 22.7902Z" fill="white"/>
<path d="M141.199 30.3184H142.453L147.303 43.8764H146.086L144.831 40.3745H138.839L137.566 43.8764H136.33L141.199 30.3184ZM139.176 39.2697H144.476L141.835 31.7603H141.798L139.176 39.2697Z" fill="white"/>
<path d="M148.839 43.8574V29.7375H150.037V37.172C150.075 36.9473 150.225 36.6851 150.524 36.3668C150.805 36.0484 151.199 35.7862 151.704 35.5428C152.21 35.2993 152.79 35.187 153.446 35.187C154.214 35.187 154.906 35.3743 155.506 35.7301C156.124 36.0859 156.611 36.5915 156.966 37.2656C157.322 37.9398 157.509 38.7263 157.509 39.6626C157.509 40.599 157.322 41.3855 156.966 42.0596C156.611 42.7338 156.124 43.2394 155.506 43.5952C154.888 43.951 154.195 44.1196 153.446 44.1196C152.809 44.1196 152.228 43.9885 151.723 43.745C151.217 43.5016 150.824 43.2207 150.524 42.9023C150.225 42.584 150.056 42.3218 150.019 42.0971V43.8574H148.839ZM156.311 39.6626C156.311 38.951 156.161 38.3331 155.88 37.8274C155.599 37.3218 155.225 36.9098 154.757 36.6477C154.288 36.3668 153.802 36.2357 153.258 36.2357C152.678 36.2357 152.135 36.3855 151.629 36.6664C151.142 36.9473 150.749 37.3405 150.449 37.8649C150.15 38.3705 150 38.9885 150 39.6814C150 40.3742 150.15 40.9922 150.449 41.4978C150.749 42.0035 151.142 42.4155 151.629 42.6964C152.116 42.9773 152.659 43.1083 153.258 43.1083C153.802 43.1083 154.307 42.9773 154.757 42.6964C155.225 42.4155 155.599 42.0222 155.88 41.5166C156.18 40.9735 156.311 40.3743 156.311 39.6626Z" fill="white"/>
<path d="M160.543 43.8574H159.401V35.4305H160.543V36.9473H160.487C160.506 36.7788 160.637 36.5353 160.861 36.2732C161.086 35.9923 161.386 35.7488 161.779 35.5241C162.154 35.2994 162.622 35.187 163.127 35.187C163.521 35.187 163.858 35.2432 164.157 35.3368C164.438 35.4305 164.644 35.5428 164.757 35.6365L164.251 36.629C164.157 36.5353 163.989 36.4604 163.745 36.3668C163.502 36.2732 163.202 36.2357 162.865 36.2357C162.397 36.2357 161.985 36.3855 161.648 36.7039C161.311 37.0222 161.03 37.3968 160.843 37.8275C160.655 38.2582 160.562 38.6514 160.562 39.026V43.8574H160.543Z" fill="white"/>
<path d="M169.588 44.1196C168.745 44.1196 167.996 43.9136 167.341 43.5203C166.685 43.1271 166.18 42.6027 165.805 41.9286C165.431 41.2544 165.243 40.5054 165.243 39.6814C165.243 38.8574 165.431 38.0896 165.805 37.4155C166.18 36.7413 166.685 36.1983 167.341 35.7863C167.996 35.393 168.745 35.187 169.588 35.187C170.431 35.187 171.18 35.393 171.816 35.7863C172.472 36.1795 172.978 36.7226 173.333 37.4155C173.708 38.0896 173.895 38.8574 173.895 39.6814C173.895 40.5054 173.708 41.2544 173.333 41.9286C172.959 42.6027 172.453 43.1271 171.816 43.5203C171.161 43.9136 170.431 44.1196 169.588 44.1196ZM169.588 43.0522C170.225 43.0522 170.787 42.9024 171.255 42.6027C171.723 42.3031 172.097 41.9099 172.36 41.3855C172.622 40.8799 172.753 40.2994 172.753 39.6627C172.753 39.026 172.622 38.4454 172.36 37.9211C172.097 37.3968 171.723 36.9848 171.255 36.6851C170.787 36.3855 170.225 36.2357 169.588 36.2357C168.951 36.2357 168.39 36.3855 167.903 36.6851C167.416 36.9848 167.041 37.3968 166.779 37.9211C166.517 38.4454 166.386 39.026 166.386 39.6627C166.386 40.2994 166.517 40.8799 166.779 41.3855C167.041 41.8911 167.416 42.3031 167.903 42.6027C168.371 42.9024 168.933 43.0522 169.588 43.0522Z" fill="white"/>
<path d="M182.903 43.8574V42.0971C182.846 42.2844 182.697 42.5278 182.434 42.8649C182.172 43.1833 181.798 43.4829 181.311 43.7263C180.843 43.9885 180.281 44.1196 179.626 44.1196C178.858 44.1196 178.165 43.9511 177.528 43.5953C176.891 43.2395 176.367 42.7338 175.993 42.0597C175.599 41.3855 175.412 40.599 175.412 39.6627C175.412 38.7263 175.599 37.9398 175.993 37.2657C176.386 36.5915 176.891 36.0859 177.528 35.7301C178.165 35.3743 178.876 35.187 179.626 35.187C180.281 35.187 180.843 35.2994 181.311 35.5428C181.779 35.7863 182.154 36.0672 182.434 36.3855C182.715 36.7039 182.865 36.966 182.903 37.172V35.4305H184.045V43.8574H182.903ZM176.554 39.6627C176.554 40.3743 176.704 40.9923 177.023 41.4979C177.322 42.0035 177.734 42.3968 178.221 42.6776C178.708 42.9585 179.232 43.0896 179.775 43.0896C180.375 43.0896 180.899 42.9585 181.367 42.6776C181.835 42.3968 182.191 42.0035 182.472 41.4792C182.734 40.9735 182.884 40.3556 182.884 39.6627C182.884 38.9698 182.753 38.3518 182.472 37.8462C182.21 37.3406 181.835 36.9286 181.367 36.6477C180.899 36.3668 180.375 36.217 179.775 36.217C179.232 36.217 178.727 36.3481 178.221 36.629C177.734 36.9099 177.341 37.3031 177.023 37.8087C176.704 38.3331 176.554 38.9511 176.554 39.6627Z" fill="white"/>
<path d="M190.393 44.1196C189.625 44.1196 188.951 43.951 188.333 43.5952C187.715 43.2394 187.228 42.7338 186.873 42.0596C186.517 41.3855 186.33 40.599 186.33 39.6626C186.33 38.7263 186.517 37.9398 186.873 37.2656C187.228 36.5915 187.734 36.0859 188.333 35.7301C188.951 35.3743 189.644 35.187 190.393 35.187C191.049 35.187 191.61 35.2993 192.116 35.5428C192.622 35.7862 193.015 36.0671 193.315 36.3668C193.614 36.6851 193.764 36.9473 193.801 37.172V29.7375H195V43.8574H193.839V42.0971C193.783 42.3218 193.614 42.584 193.315 42.9023C193.015 43.2207 192.622 43.5016 192.116 43.745C191.61 43.9885 191.03 44.1196 190.393 44.1196ZM190.524 43.0896C191.124 43.0896 191.667 42.9585 192.154 42.6776C192.64 42.3967 193.034 42.0035 193.333 41.4791C193.633 40.9735 193.783 40.3555 193.783 39.6626C193.783 38.9698 193.633 38.3518 193.333 37.8462C193.034 37.3405 192.64 36.9286 192.154 36.6477C191.667 36.3668 191.124 36.2169 190.524 36.2169C189.981 36.2169 189.494 36.348 189.026 36.6289C188.558 36.9098 188.184 37.3031 187.903 37.8087C187.622 38.3143 187.472 38.9323 187.472 39.6439C187.472 40.3555 187.622 40.9735 187.903 41.4791C188.184 41.9847 188.558 42.378 189.026 42.6589C189.494 42.9398 190 43.0896 190.524 43.0896Z" fill="white"/>
<path d="M39.0075 2.28456H35.8427V0.168457H44.5693V2.28456H41.4045V12.8089H39.0075V2.28456Z" fill="white"/>
<path d="M47.8465 12.8086H45.412V4.94347H47.8465V6.21688H47.7903C47.8277 6.06706 47.9588 5.86108 48.1648 5.63636C48.3708 5.39291 48.6517 5.18691 49.0075 4.99965C49.3633 4.81238 49.794 4.71875 50.2996 4.71875C50.6554 4.71875 50.9925 4.77494 51.2921 4.86857C51.5918 4.98093 51.7978 5.07456 51.9289 5.18691L50.9738 7.17194C50.8989 7.07831 50.7304 6.96595 50.5056 6.85359C50.2809 6.74123 50 6.68504 49.6629 6.68504C49.2697 6.68504 48.9326 6.79741 48.6517 7.02213C48.3895 7.24685 48.1835 7.50902 48.0524 7.82737C47.9214 8.14572 47.8465 8.44535 47.8465 8.70752V12.8086Z" fill="white"/>
<path d="M55.1311 8.70766C55.1311 9.41927 55.2622 9.96234 55.5618 10.393C55.8427 10.805 56.2921 11.0297 56.9288 11.0297C57.5656 11.0297 58.015 10.8238 58.2959 10.393C58.5768 9.98106 58.7266 9.41927 58.7266 8.70766V4.9436H61.1236V8.98855C61.1236 9.7938 60.9551 10.5054 60.6367 11.1234C60.3184 11.7414 59.8315 12.2095 59.2135 12.5466C58.5955 12.8837 57.8277 13.0522 56.9288 13.0522C56.0487 13.0522 55.2809 12.8837 54.6629 12.5466C54.0449 12.2095 53.5581 11.7414 53.2397 11.1234C52.9214 10.5054 52.7528 9.7938 52.7528 8.98855V4.9436H55.1498V8.70766H55.1311Z" fill="white"/>
<path d="M66.3109 4.71875C66.779 4.71875 67.2285 4.75621 67.6217 4.84984C68.015 4.94347 68.3708 5.03711 68.633 5.14947C68.9139 5.26183 69.1011 5.35546 69.176 5.43037L68.3333 6.89104C68.2023 6.79741 67.9775 6.66632 67.6405 6.53523C67.3034 6.38542 66.9476 6.32924 66.5356 6.32924C66.1798 6.32924 65.8614 6.38542 65.618 6.51651C65.3745 6.6476 65.2435 6.83486 65.2435 7.07831C65.2435 7.32175 65.3745 7.52775 65.6367 7.67756C65.8989 7.82737 66.2734 7.95846 66.7603 8.05209C67.1536 8.127 67.5656 8.25809 67.9401 8.42662C68.3333 8.59516 68.6517 8.8386 68.9139 9.15696C69.176 9.47531 69.2884 9.88729 69.2884 10.4116C69.2884 10.936 69.176 11.3667 68.9513 11.7038C68.7266 12.0409 68.4457 12.3218 68.0712 12.509C67.7154 12.715 67.3034 12.8461 66.8727 12.9397C66.442 13.0146 66.0112 13.0708 65.5805 13.0708C65.0187 13.0708 64.5318 13.0146 64.1199 12.921C63.6891 12.8086 63.3521 12.6963 63.0712 12.5652C62.7903 12.4341 62.603 12.303 62.4906 12.2094L63.3333 10.5802C63.5019 10.73 63.7641 10.8798 64.1573 11.0671C64.5318 11.2356 64.9438 11.3292 65.3933 11.3292C65.8614 11.3292 66.2172 11.2543 66.4794 11.0858C66.7416 10.9173 66.8727 10.7113 66.8727 10.4491C66.8727 10.2431 66.8165 10.0933 66.6854 9.9622C66.5543 9.83111 66.3858 9.73749 66.1611 9.64385C65.9363 9.56895 65.6742 9.49404 65.3745 9.41913C65.0936 9.36295 64.8127 9.26931 64.5318 9.15696C64.2509 9.0446 63.9701 8.89479 63.7266 8.70752C63.4832 8.52026 63.2772 8.29554 63.1274 8.01464C62.9775 7.73374 62.9026 7.39666 62.9026 7.02213C62.9026 6.51651 63.0712 6.10452 63.3895 5.76745C63.7079 5.43037 64.1199 5.16819 64.6442 4.99965C65.1873 4.81238 65.7303 4.71875 66.3109 4.71875Z" fill="white"/>
<path d="M70.2435 4.94363H71.6667V1.72266H74.0824V4.94363H75.9363V6.9661H74.0824V9.81255C74.0824 10.1871 74.1386 10.4867 74.2697 10.6927C74.382 10.8987 74.588 11.0111 74.8502 11.0111C75.0562 11.0111 75.206 10.9736 75.3371 10.8987C75.4682 10.8238 75.5431 10.7676 75.5618 10.7302L76.4232 12.4717C76.3858 12.5092 76.2547 12.5841 76.0487 12.6777C75.8427 12.7713 75.5805 12.865 75.2622 12.9399C74.9438 13.0148 74.5693 13.0522 74.176 13.0522C73.4457 13.0522 72.8652 12.8463 72.3783 12.4155C71.9101 12.0036 71.6667 11.3481 71.6667 10.468V6.9661H70.2435V4.94363Z" fill="white"/>
<path d="M36.5543 19.0259H44.4007V21.142H38.9326V24.3068H44.3258V26.348H38.9326V29.5502H44.4007V31.6663H36.5543V19.0259Z" fill="white"/>
<path d="M50.1311 31.9102C49.382 31.9102 48.7266 31.7229 48.1648 31.3671C47.603 31.0113 47.1536 30.5057 46.8352 29.8877C46.5168 29.251 46.367 28.5394 46.367 27.7529C46.367 26.9664 46.5168 26.2548 46.8352 25.6181C47.1536 24.9814 47.5843 24.4945 48.1648 24.1199C48.7266 23.7641 49.382 23.5769 50.1311 23.5769C50.6554 23.5769 51.1236 23.6705 51.5356 23.839C51.9476 24.0076 52.2846 24.2136 52.5281 24.457C52.7715 24.7005 52.9213 24.9065 52.9775 25.0937V18.502H55.412V31.6855H52.9963V30.3184C52.9026 30.5431 52.6966 30.7866 52.4345 31.03C52.1536 31.2735 51.8165 31.4982 51.4232 31.6667C51.03 31.8166 50.5992 31.9102 50.1311 31.9102ZM50.8052 29.9814C51.2172 29.9814 51.573 29.8877 51.9101 29.7005C52.2285 29.5132 52.4906 29.251 52.6779 28.9139C52.8652 28.5769 52.9588 28.2023 52.9588 27.7529C52.9588 27.3222 52.8652 26.9289 52.6779 26.5918C52.4906 26.2548 52.2285 25.9926 51.9101 25.8053C51.5918 25.6181 51.2172 25.5244 50.8052 25.5244C50.4307 25.5244 50.0749 25.6181 49.7753 25.8053C49.4569 25.9926 49.2135 26.2548 49.0262 26.5918C48.8389 26.9289 48.7453 27.3222 48.7453 27.7529C48.7453 28.1836 48.8389 28.5769 49.0262 28.9139C49.2135 29.251 49.4569 29.5132 49.7753 29.7005C50.0936 29.8877 50.4307 29.9814 50.8052 29.9814Z" fill="white"/>
<path d="M59.4569 27.5841C59.4569 28.2957 59.588 28.8388 59.8876 29.2695C60.1685 29.6815 60.618 29.9062 61.2547 29.9062C61.8914 29.9062 62.3408 29.7002 62.6217 29.2695C62.9026 28.8575 63.0524 28.2957 63.0524 27.5841V23.8201H65.4494V27.865C65.4494 28.6703 65.2809 29.3819 64.9625 29.9998C64.6442 30.6178 64.1573 31.086 63.5393 31.4231C62.9213 31.7602 62.1536 31.9287 61.2547 31.9287C60.3745 31.9287 59.6067 31.7602 58.9888 31.4231C58.3708 31.086 57.8839 30.6178 57.5655 29.9998C57.2472 29.3819 57.0786 28.6703 57.0786 27.865V23.8201H59.4757V27.5841H59.4569Z" fill="white"/>
<path d="M71.442 29.9812C71.854 29.9812 72.191 29.9063 72.4532 29.7752C72.7154 29.6441 72.8839 29.5318 72.9775 29.4569L74.1011 31.1423C74.0075 31.2172 73.839 31.3108 73.5955 31.4419C73.3521 31.573 73.0525 31.6853 72.6779 31.779C72.3034 31.8726 71.8727 31.9288 71.4045 31.9288C70.5805 31.9288 69.8315 31.7603 69.176 31.4232C68.5206 31.0861 67.9963 30.6179 67.6217 29.9812C67.2472 29.3632 67.0599 28.6142 67.0599 27.7528C67.0599 26.8913 67.2472 26.1423 67.6217 25.5243C67.9963 24.9063 68.5206 24.4194 69.176 24.1011C69.8315 23.764 70.5805 23.5955 71.4045 23.5955C71.8727 23.5955 72.3034 23.6516 72.6592 23.7453C73.0337 23.8389 73.3334 23.97 73.5768 24.1011C73.8202 24.2322 74.0075 24.3445 74.1011 24.4194L72.9401 26.1048C72.9026 26.0486 72.809 25.9925 72.6779 25.8988C72.5468 25.8052 72.3783 25.7303 72.1723 25.6554C71.9663 25.5805 71.7229 25.543 71.4232 25.543C71.0674 25.543 70.7304 25.6367 70.4307 25.8239C70.1124 26.0112 69.8502 26.2734 69.6629 26.5917C69.457 26.9288 69.3633 27.322 69.3633 27.7528C69.3633 28.2022 69.457 28.5955 69.6629 28.9325C69.8689 29.2696 70.1124 29.5318 70.4307 29.719C70.7491 29.8876 71.0862 29.9812 71.442 29.9812Z" fill="white"/>
<path d="M81.648 31.6853V30.3183C81.5918 30.4681 81.442 30.6554 81.1985 30.9176C80.9551 31.1797 80.6367 31.4044 80.2435 31.6104C79.8502 31.8164 79.382 31.9288 78.839 31.9288C78.0899 31.9288 77.4158 31.7415 76.8352 31.3857C76.2547 31.0299 75.8053 30.5243 75.4682 29.9063C75.1311 29.2696 74.9813 28.558 74.9813 27.7715C74.9813 26.985 75.1498 26.2734 75.4682 25.6367C75.8053 24.9999 76.2547 24.5131 76.8352 24.1385C77.4158 23.7827 78.0899 23.5955 78.839 23.5955C79.3633 23.5955 79.8128 23.6891 80.206 23.8576C80.5993 24.0262 80.8989 24.2322 81.1423 24.4756C81.3858 24.7003 81.5356 24.925 81.6105 25.1123V23.8389H84.0262V31.7041H81.648V31.6853ZM77.3783 27.7528C77.3783 28.2022 77.4719 28.5767 77.6779 28.9138C77.8839 29.2509 78.1461 29.5131 78.4644 29.7003C78.7828 29.8876 79.1386 29.9812 79.5319 29.9812C79.9251 29.9812 80.2996 29.8876 80.5993 29.7003C80.9176 29.5131 81.1611 29.2509 81.3483 28.9138C81.5356 28.5767 81.6292 28.2022 81.6292 27.7528C81.6292 27.322 81.5356 26.9288 81.3483 26.5917C81.1611 26.2546 80.9176 25.9925 80.5993 25.8052C80.2809 25.6179 79.9251 25.5243 79.5319 25.5243C79.1573 25.5243 78.8015 25.6179 78.4644 25.8052C78.1461 25.9925 77.8839 26.2546 77.6779 26.5917C77.4907 26.9288 77.3783 27.3033 77.3783 27.7528Z" fill="white"/>
<path d="M85.3746 23.8203H86.7978V20.5994H89.2135V23.8203H91.0674V25.8428H89.2135V28.6705C89.2135 29.0451 89.2697 29.3447 89.4008 29.5507C89.5131 29.7567 89.7191 29.869 89.9813 29.869C90.1873 29.869 90.3371 29.8316 90.4682 29.7567C90.5993 29.6818 90.6742 29.6256 90.6929 29.5881L91.5543 31.3297C91.5169 31.3672 91.3858 31.4421 91.1798 31.5357C90.9738 31.6293 90.7116 31.723 90.3933 31.7979C90.0749 31.8728 89.7004 31.9102 89.3071 31.9102C88.5768 31.9102 87.9963 31.7042 87.5094 31.2735C87.0412 30.8615 86.7978 30.2061 86.7978 29.326V25.8241H85.3746V23.8203Z" fill="white"/>
<path d="M94.1573 21.7789C93.7641 21.7789 93.4083 21.6291 93.1461 21.3482C92.8652 21.0673 92.7341 20.7302 92.7341 20.337C92.7341 19.9437 92.8652 19.6066 93.1648 19.3257C93.4457 19.0448 93.7828 18.895 94.176 18.895C94.4382 18.895 94.6817 18.9699 94.8877 19.0823C95.1124 19.2134 95.2809 19.3819 95.412 19.6066C95.5431 19.8313 95.618 20.0748 95.618 20.337C95.618 20.7302 95.4682 21.0673 95.1873 21.3482C94.8877 21.6478 94.5506 21.7789 94.1573 21.7789ZM92.9026 31.6853V23.8201H95.3184V31.6853H92.9026Z" fill="white"/>
<path d="M101.405 31.91C100.562 31.91 99.8128 31.7227 99.1761 31.3669C98.5206 31.0111 98.015 30.5242 97.6405 29.8875C97.2659 29.2695 97.0787 28.5579 97.0787 27.7527C97.0787 26.9474 97.2659 26.2358 97.6405 25.6179C98.015 24.9812 98.5206 24.4943 99.1761 24.1197C99.8315 23.7452 100.581 23.5767 101.405 23.5767C102.247 23.5767 102.996 23.7639 103.633 24.1197C104.27 24.4943 104.775 24.9812 105.15 25.6179C105.506 26.2546 105.693 26.9662 105.693 27.7527C105.693 28.5579 105.506 29.2695 105.15 29.8875C104.794 30.5055 104.288 30.9924 103.633 31.3669C102.996 31.7227 102.247 31.91 101.405 31.91ZM101.405 29.8875C101.798 29.8875 102.154 29.7939 102.453 29.6066C102.753 29.4194 102.978 29.1759 103.146 28.8576C103.315 28.5392 103.39 28.1647 103.39 27.7527C103.39 27.3407 103.315 26.9849 103.146 26.6478C102.978 26.3295 102.753 26.0673 102.453 25.88C102.154 25.6928 101.798 25.5991 101.405 25.5991C101.011 25.5991 100.655 25.6928 100.356 25.88C100.056 26.0673 99.8315 26.3295 99.6629 26.6478C99.4944 26.9662 99.4195 27.3407 99.4195 27.7527C99.4195 28.1647 99.4944 28.5205 99.6629 28.8576C99.8315 29.1759 100.056 29.4381 100.356 29.6066C100.655 29.7939 101.011 29.8875 101.405 29.8875Z" fill="white"/>
<path d="M112.36 23.5767C112.903 23.5767 113.427 23.689 113.933 23.9137C114.438 24.1385 114.869 24.4755 115.187 24.9624C115.524 25.4493 115.674 26.0673 115.674 26.8351V31.6666H113.24V27.2471C113.24 26.6104 113.09 26.1235 112.79 25.8051C112.491 25.4868 112.097 25.337 111.592 25.337C111.273 25.337 110.974 25.4306 110.674 25.5991C110.375 25.7677 110.15 26.0111 109.963 26.3295C109.775 26.6478 109.682 26.9849 109.682 27.3969V31.6666H107.247V23.8014H109.682V25.0561C109.757 24.8313 109.906 24.6066 110.169 24.3819C110.412 24.1572 110.73 23.9512 111.124 23.8014C111.498 23.6516 111.91 23.5767 112.36 23.5767Z" fill="white"/>
<path d="M40.5431 37.9023H42.9401L47.809 50.5428H45.2622L44.2697 47.8087H39.2135L38.2022 50.5428H35.6367L40.5431 37.9023ZM40.0187 45.6926H43.5019L41.7603 40.7862H41.7228L40.0187 45.6926Z" fill="white"/>
<path d="M55.1498 50.543V49.176C55.0936 49.3258 54.9438 49.5131 54.7004 49.7752C54.4569 50.0374 54.1386 50.2621 53.7453 50.4681C53.3521 50.6741 52.8839 50.7865 52.3408 50.7865C51.5918 50.7865 50.9176 50.5992 50.3371 50.2434C49.7566 49.8876 49.3071 49.382 48.97 48.764C48.633 48.1273 48.4831 47.4157 48.4831 46.6292C48.4831 45.8426 48.6517 45.131 48.97 44.4943C49.3071 43.8576 49.7566 43.3707 50.3371 42.9962C50.9176 42.6404 51.5918 42.4531 52.3408 42.4531C52.8652 42.4531 53.3146 42.5468 53.7079 42.7153C54.1011 42.8838 54.4007 43.0898 54.6442 43.3333C54.8876 43.558 55.0375 43.7827 55.1124 43.97V42.6966H57.5281V50.5617H55.1498V50.543ZM52.9401 54.7565C52.3595 54.7565 51.8165 54.7003 51.2921 54.588C50.7678 54.4756 50.2809 54.3071 49.8689 54.0823C49.4382 53.8576 49.0824 53.558 48.8015 53.1835L50.2809 51.6853C50.412 51.8539 50.5805 52.0411 50.8052 52.2097C51.0112 52.3782 51.2921 52.528 51.6292 52.6591C51.9663 52.7715 52.3783 52.8277 52.8839 52.8277C53.3521 52.8277 53.764 52.734 54.1011 52.5468C54.4382 52.3595 54.7004 52.1161 54.8876 51.779C55.0749 51.4419 55.1685 51.0674 55.1685 50.6179V50.3932H57.5468V50.749C57.5468 51.6104 57.3408 52.3408 56.9288 52.94C56.5169 53.5393 55.9738 53.9887 55.2809 54.2883C54.588 54.6067 53.8015 54.7565 52.9401 54.7565ZM50.8801 46.6104C50.8801 47.0599 50.9738 47.4344 51.1798 47.7715C51.3858 48.1086 51.6479 48.3707 51.9663 48.558C52.2846 48.7453 52.6404 48.8389 53.0337 48.8389C53.427 48.8389 53.8015 48.7453 54.1011 48.558C54.4195 48.3707 54.6629 48.1086 54.8502 47.7715C55.0374 47.4344 55.1311 47.0599 55.1311 46.6104C55.1311 46.1797 55.0374 45.7865 54.8502 45.4494C54.6629 45.1123 54.4195 44.8501 54.1011 44.6629C53.7828 44.4756 53.427 44.382 53.0337 44.382C52.6592 44.382 52.3034 44.4756 51.9663 44.6629C51.6479 44.8501 51.3858 45.1123 51.1798 45.4494C50.9738 45.7865 50.8801 46.1797 50.8801 46.6104Z" fill="white"/>
<path d="M61.3858 47.1534C61.4045 47.5092 61.4982 47.8276 61.6667 48.1085C61.8352 48.3894 62.0974 48.6141 62.4158 48.7639C62.7528 48.9325 63.1461 49.0074 63.6143 49.0074C64.0262 49.0074 64.3821 48.9512 64.7004 48.8575C65.0188 48.7639 65.2809 48.6328 65.5057 48.483C65.7304 48.3332 65.8802 48.1834 65.9925 48.0336L67.0038 49.513C66.8165 49.7377 66.5731 49.9437 66.2922 50.1497C65.9925 50.337 65.618 50.4868 65.1686 50.5991C64.7191 50.7115 64.1386 50.7677 63.4644 50.7677C62.603 50.7677 61.854 50.5991 61.1985 50.262C60.5431 49.925 60.0375 49.4381 59.663 48.8014C59.2884 48.1647 59.1199 47.3969 59.1199 46.5167C59.1199 45.7489 59.2884 45.0561 59.6068 44.4381C59.9439 43.8201 60.412 43.3332 61.03 42.9774C61.648 42.6216 62.397 42.4343 63.2772 42.4343C64.1012 42.4343 64.8128 42.5841 65.412 42.9025C66.0113 43.2208 66.4794 43.689 66.8165 44.2883C67.1536 44.8875 67.3221 45.6366 67.3221 46.5167C67.3221 46.5729 67.3221 46.6665 67.3221 46.8351C67.3221 47.0036 67.3034 47.0972 67.3034 47.1347H61.3858V47.1534ZM65.0375 45.6553C65.0375 45.4493 64.9626 45.2246 64.8502 44.9999C64.7379 44.7564 64.5506 44.5692 64.2884 44.4006C64.045 44.2321 63.7079 44.1572 63.2959 44.1572C62.8839 44.1572 62.5468 44.2321 62.2847 44.4006C62.0225 44.5692 61.8165 44.7564 61.6854 44.9811C61.5543 45.2059 61.4794 45.4306 61.442 45.6553H65.0375Z" fill="white"/>
<path d="M73.97 42.4531C74.5131 42.4531 75.0375 42.5655 75.5431 42.7902C76.0487 43.0149 76.4794 43.352 76.7978 43.8389C77.1348 44.3258 77.2846 44.9438 77.2846 45.7116V50.543H74.8502V46.1235C74.8502 45.4868 74.7004 44.9999 74.4008 44.6816C74.1011 44.3632 73.7079 44.2134 73.2022 44.2134C72.8839 44.2134 72.5843 44.3071 72.2846 44.4756C71.985 44.6441 71.7603 44.8876 71.573 45.2059C71.3858 45.5243 71.2921 45.8614 71.2921 46.2734V50.543H68.8577V42.6778H71.2921V43.9325C71.367 43.7078 71.5169 43.4831 71.779 43.2584C72.0225 43.0337 72.3408 42.8277 72.7341 42.6778C73.1273 42.528 73.5393 42.4531 73.97 42.4531Z" fill="white"/>
<path d="M83.2397 48.8389C83.6517 48.8389 83.9887 48.764 84.2509 48.6329C84.5131 48.5018 84.6816 48.3895 84.7753 48.3146L85.8989 50C85.8052 50.0749 85.6367 50.1685 85.3932 50.2996C85.1498 50.4307 84.8502 50.543 84.4756 50.6366C84.1011 50.7303 83.6704 50.7865 83.2022 50.7865C82.3783 50.7865 81.6292 50.6179 80.9738 50.2809C80.3183 49.9438 79.794 49.4756 79.4195 48.8389C79.0449 48.2209 78.8577 47.4719 78.8577 46.6104C78.8577 45.749 79.0449 45 79.4195 44.382C79.794 43.764 80.3183 43.2771 80.9738 42.9587C81.6292 42.6217 82.3783 42.4531 83.2022 42.4531C83.6704 42.4531 84.1011 42.5093 84.4569 42.6029C84.8314 42.6966 85.1311 42.8277 85.3745 42.9587C85.618 43.0898 85.8052 43.2022 85.8989 43.2771L84.7378 44.9625C84.7004 44.9063 84.6067 44.8501 84.4756 44.7565C84.3446 44.6629 84.176 44.588 83.97 44.5131C83.764 44.4381 83.5206 44.4007 83.221 44.4007C82.8651 44.4007 82.5281 44.4943 82.2284 44.6816C81.9101 44.8689 81.6479 45.131 81.4607 45.4494C81.2547 45.7865 81.161 46.1797 81.161 46.6104C81.161 47.0599 81.2547 47.4531 81.4607 47.7902C81.6667 48.1273 81.9101 48.3895 82.2284 48.5767C82.5468 48.7453 82.8839 48.8389 83.2397 48.8389Z" fill="white"/>
<path d="M90.955 48.4083L93.2771 42.678H95.6742L90.2996 54.5319H87.8652L89.6816 50.5431L86.4232 42.678H88.8577L90.955 48.4083Z" fill="white"/>
<path d="M0.486893 40.1684C0.22472 40.1684 0 39.9437 0 39.6815L0.093633 6.83508C0.11236 3.12721 3.12734 0.11222 6.83521 0.130946C10.5431 0.149673 13.5581 3.16465 13.5393 6.87252L13.4644 39.719C13.4644 39.9811 13.2397 40.2059 12.9775 40.2059C12.7154 40.2059 12.4906 39.9811 12.4906 39.719L12.5843 6.87252C12.603 3.70773 10.0375 1.12346 6.85393 1.10473C3.68914 1.086 1.10487 3.65155 1.08614 6.83508L0.99251 39.6815C0.99251 39.9437 0.767791 40.1684 0.486893 40.1684Z" fill="white"/>
<path d="M10.2247 39.4193L10.3183 5.05604C10.3183 4.99986 10.3558 4.9624 10.412 4.9624C10.4682 4.9624 10.5056 4.99986 10.5056 5.05604L10.412 39.4193C10.412 39.4755 10.3745 39.513 10.3183 39.513C10.2622 39.513 10.2247 39.4568 10.2247 39.4193Z" fill="white"/>
<path d="M7.86516 39.4008L7.95879 5.03748C7.95879 4.9813 7.99625 4.94385 8.05243 4.94385C8.10861 4.94385 8.14606 4.9813 8.14606 5.03748L8.05243 39.4008C8.05243 39.457 8.01497 39.4944 7.95879 39.4944C7.90262 39.4944 7.86516 39.457 7.86516 39.4008Z" fill="white"/>
<path d="M5.50562 39.4008L5.59925 5.03748C5.59925 4.9813 5.63671 4.94385 5.69288 4.94385C5.74906 4.94385 5.78652 4.9813 5.78652 5.03748L5.69288 39.4008C5.69288 39.457 5.65543 39.4944 5.59925 39.4944C5.54307 39.4944 5.50562 39.457 5.50562 39.4008Z" fill="white"/>
<path d="M3.14608 39.382L3.23971 5.01868C3.23971 4.9625 3.27717 4.92505 3.33335 4.92505C3.38953 4.92505 3.42698 4.9625 3.42698 5.01868L3.33335 39.382C3.33335 39.4382 3.29589 39.4756 3.23971 39.4756C3.18353 39.4943 3.14608 39.4382 3.14608 39.382Z" fill="white"/>
<path d="M28.5206 10.1497C28.7828 10.1497 29.0075 10.3745 29.0075 10.6366L28.9139 43.4831C28.8951 47.191 25.8801 50.2059 22.1723 50.1872C18.4644 50.1685 15.4494 47.1535 15.4682 43.4456L15.5618 10.5992C15.5618 10.337 15.7865 10.1123 16.0487 10.1123C16.3109 10.1123 16.5356 10.337 16.5356 10.5992L16.442 43.4456C16.4232 46.6104 18.9888 49.1947 22.1723 49.2134C25.3558 49.2322 27.9214 46.6666 27.9401 43.4831L28.0337 10.6366C28.0337 10.3557 28.2584 10.1497 28.5206 10.1497Z" fill="white"/>
<path d="M18.8015 10.8988L18.7079 45.2621C18.7079 45.3183 18.6704 45.3557 18.6142 45.3557C18.558 45.3557 18.5206 45.3183 18.5206 45.2621L18.6142 10.8988C18.6142 10.8426 18.6517 10.8052 18.7079 10.8052C18.764 10.8052 18.8015 10.8426 18.8015 10.8988Z" fill="white"/>
<path d="M21.1611 10.9176L21.0674 45.2809C21.0674 45.3371 21.03 45.3745 20.9738 45.3745C20.9176 45.3745 20.8802 45.3371 20.8802 45.2809L20.9738 10.9176C20.9738 10.8614 21.0112 10.824 21.0674 10.824C21.1236 10.8053 21.1611 10.8614 21.1611 10.9176Z" fill="white"/>
<path d="M23.5206 10.9176L23.427 45.2809C23.427 45.3371 23.3895 45.3745 23.3333 45.3745C23.2772 45.3745 23.2397 45.3371 23.2397 45.2809L23.3333 10.9176C23.3333 10.8614 23.3708 10.824 23.427 10.824C23.4831 10.824 23.5206 10.8614 23.5206 10.9176Z" fill="white"/>
<path d="M25.8801 10.9174L25.7678 45.2995C25.7678 45.3556 25.7303 45.3931 25.6741 45.3931C25.618 45.3931 25.5805 45.3556 25.5805 45.2995L25.6741 10.9362C25.6741 10.88 25.7116 10.8425 25.7678 10.8425C25.8239 10.8238 25.8801 10.8612 25.8801 10.9174Z" fill="white"/>
<path d="M124.963 0.112305H124.494V58.3333H124.963V0.112305Z" fill="white"/>
<path d="M125.075 58.4644H124.382V0H125.075V58.4644ZM124.607 58.221H124.831V0.243443H124.607V58.221Z" fill="white"/>
</svg>
